<svg width="301" height="138" viewBox="0 0 301 138" fill="none" xmlns="http://www.w3.org/2000/svg">
<g clip-path="url(#clip0_2638_33911)">
<path d="M237.054 15.3346C237.315 15.3346 237.566 15.1881 237.686 14.9386C238.062 14.1629 238.21 13.3873 238.133 12.6387C237.735 8.80914 231.764 6.89978 227.401 5.50573C222.798 4.03574 217.923 3.18955 212.917 2.99427C212.546 2.96715 212.202 3.27634 212.186 3.66689C212.17 4.05201 212.475 4.37747 212.862 4.39375C217.743 4.5836 222.488 5.40267 226.97 6.83469C230.509 7.96837 236.437 9.86145 236.737 12.7852C236.786 13.2788 236.683 13.7995 236.421 14.3419C236.252 14.6891 236.399 15.1068 236.748 15.2749C236.846 15.3237 236.95 15.3454 237.054 15.3454V15.3346Z" fill="#408F95"/>
<path d="M158.399 19.6143C158.399 19.6143 158.454 19.6143 158.481 19.6143C159.61 19.4841 160.739 19.2509 161.835 18.9146C163.291 18.4698 164.376 17.9274 164.834 17.6996L164.987 17.6236C169.955 15.2261 175.081 13.0129 180.218 11.0548C184.946 9.25389 188.687 7.8273 193.716 6.5797C199.022 5.26702 204.519 4.4588 210.048 4.18758C210.436 4.16588 210.736 3.84042 210.714 3.4553C210.692 3.07017 210.37 2.77183 209.978 2.79353C204.355 3.07017 198.771 3.88924 193.372 5.22905C188.257 6.49834 184.488 7.93578 179.711 9.75293C174.536 11.7274 169.372 13.9513 164.371 16.3652L164.202 16.4465C163.733 16.6798 162.757 17.168 161.415 17.5802C160.401 17.8894 159.359 18.1064 158.312 18.2257C157.925 18.2691 157.652 18.6163 157.696 18.996C157.734 19.354 158.039 19.6143 158.394 19.6143H158.399Z" fill="#408F95"/>
<path d="M224.075 27.7074C224.184 27.7074 224.293 27.6803 224.396 27.6315C225.601 27.0077 227.401 26.053 229.108 25.0333C229.561 24.762 230.406 24.263 231.497 23.5307C231.829 23.3083 232.189 23.0642 232.56 22.793C233.891 21.8492 235.178 20.824 236.394 19.75C236.426 19.7174 236.459 19.6849 236.486 19.6469C236.546 19.571 236.639 19.4571 236.759 19.316C237.992 17.8298 239.153 16.2838 238.668 15.1773C238.515 14.8247 238.139 14.3962 237.234 14.3474C236.841 14.3202 236.514 14.6186 236.492 15.0037C236.47 15.3888 236.765 15.7197 237.152 15.7414C237.266 15.7468 237.337 15.7631 237.381 15.7739C237.381 16.0235 237.125 16.6798 235.674 18.4264C235.565 18.5566 235.478 18.6651 235.412 18.7465C234.245 19.7717 233.013 20.748 231.742 21.6539C231.377 21.9143 231.033 22.1475 230.711 22.3699C229.653 23.0805 228.83 23.5687 228.388 23.8345C226.709 24.8326 224.942 25.7764 223.753 26.3893C223.409 26.5683 223.273 26.986 223.453 27.3332C223.578 27.5718 223.824 27.7129 224.075 27.7129V27.7074Z" fill="#408F95"/>
<path d="M196.115 31.7811C202.976 31.7811 209.563 31.0108 209.645 31C213.784 30.4847 217.961 29.7253 222.052 28.7435C222.428 28.6513 222.662 28.277 222.57 27.9027C222.477 27.5284 222.101 27.2952 221.724 27.3874C217.683 28.3584 213.561 29.1069 209.476 29.6114C209.389 29.6222 200.113 30.7071 192.194 30.284C189.74 30.1538 187.248 29.8555 184.794 29.389C183.698 29.1829 183.103 29.0364 180.611 28.4343L177.595 27.702C176.608 27.4633 175.747 27.2464 174.983 27.0565C172.704 26.487 171.199 26.1073 169.737 26.0042C167.572 25.8523 165.363 26.0367 163.182 26.5575C162.806 26.6443 162.571 27.024 162.664 27.3983C162.751 27.7725 163.128 28.0058 163.509 27.9136C165.554 27.4308 167.616 27.2572 169.639 27.3983C170.98 27.4905 172.36 27.8376 174.64 28.4126C175.409 28.6079 176.276 28.8248 177.263 29.0635L180.279 29.7958C182.738 30.3925 183.398 30.5552 184.532 30.7668C187.046 31.2387 189.598 31.5479 192.118 31.6835C193.432 31.754 194.779 31.7811 196.115 31.7811Z" fill="#408F95"/>
<path d="M156.191 19.6632C156.491 19.6632 156.769 19.4679 156.862 19.1696C156.976 18.8007 156.769 18.4102 156.398 18.2963C154.762 17.7972 146.233 15.2478 139.203 14.2172C135.773 13.7127 133.259 13.6639 130.522 14.0436C129.627 14.1684 128.733 14.3419 127.86 14.5535C127.484 14.6457 127.255 15.0254 127.348 15.3997C127.44 15.774 127.817 16.0072 128.199 15.9096C129.022 15.7089 129.873 15.5461 130.723 15.4268C133.319 15.0634 135.719 15.1122 139.007 15.595C145.933 16.6147 154.375 19.1316 155.994 19.6306C156.065 19.6523 156.131 19.6632 156.202 19.6632H156.191Z" fill="#408F95"/>
<path d="M135.991 45.0489C136.04 45.0489 136.089 45.0489 136.138 45.0327C139.28 44.36 144.624 41.7727 146.576 39.9881C148.261 38.735 149.608 37.7424 150.754 36.8962C154.718 33.9725 156.36 32.7683 161.568 28.4071C161.862 28.1576 161.9 27.7183 161.655 27.4253C161.404 27.1324 160.962 27.0945 160.668 27.3386C155.493 31.6672 153.862 32.8713 149.919 35.7734C148.763 36.625 147.405 37.623 145.704 38.8923C145.682 38.9086 145.666 38.9249 145.644 38.9412C143.888 40.5685 138.756 43.0419 135.838 43.6657C135.457 43.7471 135.217 44.116 135.299 44.4957C135.369 44.8211 135.659 45.0489 135.986 45.0489H135.991Z" fill="#408F95"/>
<path d="M135.991 45.0489C136.177 45.0489 136.368 44.973 136.504 44.8265C138.331 42.8901 140.676 39.63 141.456 35.0953C141.69 33.7392 142.235 30.566 140.954 26.9589C139.781 23.6663 137.736 21.7624 135.37 19.5547C133.292 17.6182 130.931 15.9583 128.346 14.6131C128.002 14.4341 127.577 14.5643 127.397 14.906C127.217 15.2478 127.348 15.6708 127.691 15.8499C130.162 17.1354 132.419 18.7247 134.404 20.5744C136.728 22.7387 138.565 24.4528 139.623 27.4253C140.785 30.6908 140.283 33.6145 140.065 34.8621C139.345 39.0551 137.169 42.0764 135.473 43.8719C135.206 44.1539 135.222 44.5933 135.506 44.8591C135.642 44.9838 135.817 45.0489 135.986 45.0489H135.991Z" fill="#408F95"/>
<path d="M145.791 23.2269C145.998 23.2269 146.2 23.1401 146.336 22.9666C146.582 22.6682 146.533 22.2289 146.233 21.9848C145.039 21.0247 143.73 20.2056 142.345 19.5601C140.676 18.779 138.903 18.242 137.077 17.9599C136.695 17.9003 136.335 18.1606 136.275 18.5457C136.215 18.9255 136.477 19.2835 136.864 19.3431C138.56 19.6035 140.201 20.1025 141.75 20.8294C143.032 21.4315 144.248 22.1855 145.355 23.0805C145.486 23.1835 145.638 23.2378 145.797 23.2378L145.791 23.2269Z" fill="#408F95"/>
<path d="M142.917 38.3879C143.064 38.3879 143.217 38.3391 143.348 38.2415C144.864 37.0752 147.558 34.5638 148.518 30.8427C148.812 29.6927 149.434 27.2952 148.348 24.8488C148.196 24.5071 148.016 24.1708 147.814 23.8562C147.601 23.5307 147.171 23.4385 146.843 23.65C146.516 23.8616 146.423 24.2901 146.636 24.6156C146.8 24.8651 146.947 25.1363 147.067 25.4129C147.956 27.4199 147.438 29.4215 147.16 30.501C146.303 33.8206 143.866 36.088 142.492 37.1403C142.186 37.3736 142.126 37.8129 142.366 38.1221C142.502 38.3011 142.71 38.3933 142.922 38.3933L142.917 38.3879Z" fill="#408F95"/>
<path d="M212.11 23.3951C212.257 23.3951 212.404 23.3951 212.557 23.3842C215.747 23.2486 218.005 21.719 219.069 20.8185C219.363 20.569 219.401 20.1296 219.15 19.8367C218.899 19.5438 218.458 19.5058 218.163 19.7554C217.236 20.5419 215.268 21.8708 212.503 21.9902C209.727 22.1041 207.84 20.9487 206.591 20.1785C205.91 19.7554 205.648 19.5004 205.56 19.3865C205.768 19.1533 206.662 18.7464 209.563 18.2311C212.17 17.7701 214.913 17.6562 217.716 17.8948C218.103 17.9219 218.441 17.6453 218.474 17.2602C218.507 16.8751 218.223 16.5387 217.836 16.5062C214.913 16.2567 212.045 16.376 209.318 16.8588C206.651 17.3307 204.246 17.8786 204.132 19.3214C204.077 19.9778 204.595 20.5907 205.855 21.3664C207.104 22.1366 209.154 23.3951 212.115 23.3951H212.11Z" fill="#408F95"/>
<path d="M224.445 24.4094C224.691 24.4094 224.931 24.2792 225.061 24.0514C225.252 23.7151 225.127 23.2866 224.789 23.1022C222.635 21.9142 220.84 20.3249 219.45 18.3939C218.714 17.3687 218.097 16.2513 217.628 15.0688C217.487 14.7108 217.078 14.5372 216.718 14.6782C216.358 14.8192 216.183 15.2261 216.325 15.5841C216.843 16.8696 217.508 18.0901 218.31 19.2021C219.821 21.3067 221.773 23.0317 224.107 24.3226C224.216 24.3823 224.331 24.4094 224.445 24.4094Z" fill="#408F95"/>
<path d="M230.897 10.5503C230.793 9.94277 230.215 9.53594 229.61 9.63901C228.999 9.74207 228.59 10.317 228.693 10.9191C228.797 11.5267 229.375 11.9335 229.98 11.8304C230.591 11.7274 231 11.1524 230.897 10.5503Z" fill="#408F95"/>
<path d="M199.431 36.8799C200.658 36.8637 201.852 36.766 203.03 36.587C204.644 36.3429 206.248 35.9415 207.791 35.3937C213.462 33.3867 216.565 31.6563 221.703 28.7923C222.041 28.6024 222.161 28.1793 221.97 27.843C221.779 27.5067 221.354 27.3874 221.015 27.5772C215.769 30.5009 212.879 32.112 207.317 34.081C205.855 34.5963 204.344 34.976 202.817 35.2093C201.705 35.3774 200.576 35.4696 199.453 35.4859C198.171 35.4371 197.555 35.2635 197.277 35.1387C197.62 34.9055 198.498 34.4498 200.696 33.761C201.067 33.647 201.269 33.2511 201.154 32.8876C201.04 32.5188 200.642 32.3127 200.276 32.432C196.742 33.5386 195.548 34.298 195.712 35.3232C195.919 36.6033 197.937 36.8257 199.436 36.8854L199.431 36.8799Z" fill="#408F95"/>
<path d="M197.288 33.8315C197.724 33.8315 198.138 33.8098 198.531 33.7881C204.164 33.4409 208.712 32.2476 208.903 32.1933C211.025 31.6292 213.151 30.9403 215.224 30.1483C215.584 30.0073 215.764 29.6059 215.627 29.2479C215.486 28.8899 215.082 28.7109 214.722 28.8465C212.693 29.6222 210.616 30.2948 208.543 30.8481C208.358 30.8969 203.946 32.0577 198.449 32.394C197.184 32.47 195.821 32.5025 194.223 31.9384C193.356 31.6346 192.532 31.1898 191.78 30.6203C191.469 30.387 191.033 30.4467 190.798 30.7559C190.564 31.0651 190.624 31.499 190.934 31.7322C191.801 32.3886 192.75 32.8985 193.754 33.2511C195.057 33.7121 196.24 33.8315 197.293 33.8315H197.288Z" fill="#408F95"/>
<path d="M174.116 36.88C175.948 36.88 177.77 36.701 179.575 36.343C183.561 35.5456 187.411 33.8424 190.711 31.4177C191.022 31.1899 191.087 30.7505 190.858 30.4413C190.629 30.1321 190.187 30.067 189.876 30.2948C186.741 32.6002 183.087 34.2221 179.302 34.976C176.456 35.5456 173.549 35.6378 170.659 35.2635C170.768 34.3305 171.084 32.6761 171.957 31.4828C172.207 31.141 172.622 30.5715 173.353 30.1104C173.543 29.9857 173.691 29.9151 174.089 29.7199L174.367 29.5843C175.163 29.1883 175.807 28.8574 176.232 28.635C176.576 28.456 176.706 28.0329 176.526 27.6912C176.347 27.3494 175.921 27.2193 175.578 27.3983C175.158 27.6207 174.525 27.9461 173.74 28.3312L173.467 28.4669C173.047 28.673 172.856 28.7652 172.595 28.9333C171.64 29.5409 171.106 30.2677 170.822 30.6583C169.464 32.5025 169.235 35.0791 169.197 35.8222C169.181 36.1802 169.437 36.4948 169.792 36.5491C171.231 36.7715 172.676 36.8854 174.122 36.8854L174.116 36.88Z" fill="#408F95"/>
<path d="M167.997 14.8518C169.028 14.8518 170.124 14.7813 171.345 14.6511C171.733 14.6077 172.011 14.266 171.967 13.8808C171.924 13.4957 171.58 13.2136 171.193 13.2625C170.015 13.3872 168.968 13.4523 167.986 13.4577C167.599 13.4577 167.288 13.7723 167.288 14.1575C167.288 14.5426 167.604 14.8518 167.992 14.8518H167.997Z" fill="#408F95"/>
<path d="M167.375 6.92688C167.446 6.92688 167.523 6.91603 167.594 6.89433C168.379 6.63396 169.164 6.36817 169.95 6.09696C172.114 5.35383 174.356 4.58357 176.679 4.07369C186.79 2.02872 196.638 1.14998 205.942 1.46459C206.324 1.47544 206.656 1.1771 206.667 0.791977C206.678 0.40685 206.378 0.0813914 205.991 0.0705428C196.584 -0.249492 186.621 0.634672 176.39 2.70676C173.974 3.23834 171.7 4.01944 169.497 4.77885C168.717 5.04464 167.937 5.31586 167.157 5.5708C166.787 5.69013 166.59 6.08611 166.71 6.44954C166.808 6.74245 167.081 6.9323 167.375 6.9323V6.92688Z" fill="#408F95"/>
<path d="M220.939 5.29417C221.206 5.29417 221.462 5.14228 221.577 4.88734C221.735 4.53476 221.577 4.12251 221.228 3.96521C219.444 3.15698 217.596 2.46267 215.725 1.89312C213.309 1.15541 210.817 0.618405 208.309 0.292947C207.921 0.244128 207.572 0.509919 207.523 0.895046C207.474 1.28017 207.741 1.62733 208.129 1.67615C210.555 1.99076 212.977 2.51149 215.316 3.2275C217.127 3.78078 218.926 4.4534 220.65 5.2345C220.742 5.27789 220.841 5.29959 220.939 5.29959V5.29417Z" fill="#408F95"/>
<path d="M207.033 3.39024C207.262 3.39024 207.491 3.27633 207.627 3.0702C207.834 2.74475 207.742 2.3108 207.414 2.10468C207.267 2.01246 207.049 1.87686 206.782 1.72497C205.778 1.16085 204.693 0.732324 203.559 0.444836C202.681 0.222439 201.776 0.0922554 200.865 0.0542852C200.478 0.0380122 200.15 0.33635 200.134 0.721476C200.118 1.1066 200.418 1.43206 200.805 1.44833C201.623 1.48088 202.43 1.60021 203.215 1.79549C204.23 2.05043 205.2 2.43556 206.095 2.9346C206.335 3.0702 206.525 3.18954 206.662 3.2709C206.776 3.34684 206.907 3.37939 207.038 3.37939L207.033 3.39024Z" fill="#408F95"/>
<path d="M197.255 4.00319C197.484 4.00319 197.713 3.88927 197.844 3.68315C198.051 3.35769 197.958 2.92917 197.631 2.71762C197.484 2.62541 197.266 2.4898 196.999 2.33792C195.995 1.77379 194.91 1.34527 193.77 1.05778C192.892 0.835386 191.987 0.705202 191.076 0.667232C190.689 0.645535 190.362 0.949296 190.345 1.33442C190.329 1.71955 190.629 2.04501 191.016 2.06128C191.834 2.09383 192.641 2.21316 193.427 2.40844C194.441 2.66338 195.412 3.04851 196.306 3.54754C196.546 3.68315 196.737 3.80249 196.873 3.88385C196.988 3.95979 197.124 3.99234 197.249 3.99234L197.255 4.00319Z" fill="#408F95"/>
<path d="M188.235 5.27244C188.464 5.27244 188.693 5.15853 188.829 4.95241C189.036 4.62695 188.944 4.19843 188.617 3.98688C188.469 3.89467 188.251 3.75906 187.984 3.60718C186.975 3.04305 185.89 2.61453 184.756 2.32704C183.878 2.10464 182.972 1.97446 182.062 1.93649C181.674 1.92021 181.347 2.21855 181.331 2.60368C181.314 2.9888 181.614 3.31426 182.002 3.33054C182.82 3.36308 183.627 3.48242 184.412 3.67769C185.426 3.93264 186.397 4.31776 187.291 4.8168C187.531 4.95241 187.722 5.07174 187.859 5.15311C187.973 5.22905 188.104 5.26159 188.235 5.26159V5.27244Z" fill="#408F95"/>
<path d="M174.831 34.0702H174.847C177.246 34.0105 179.526 33.4735 181.615 32.4646C182.525 32.0252 183.398 31.499 184.21 30.8969C184.521 30.6637 184.587 30.2298 184.352 29.9206C184.118 29.6114 183.681 29.5463 183.371 29.7795C182.629 30.3328 181.827 30.8156 181.004 31.2116C179.095 32.1283 177.012 32.6219 174.814 32.6761C174.427 32.687 174.122 33.007 174.127 33.3921C174.138 33.7718 174.449 34.0756 174.831 34.0756V34.0702Z" fill="#408F95"/>
<path d="M176.096 31.2549C176.178 31.2549 176.259 31.2387 176.336 31.2115L180.333 29.7578C180.698 29.6276 180.884 29.2262 180.753 28.8628C180.622 28.4994 180.213 28.3149 179.853 28.4451L175.856 29.8989C175.49 30.029 175.305 30.4304 175.436 30.7939C175.54 31.0759 175.807 31.2549 176.096 31.2549Z" fill="#408F95"/>
<path d="M166.138 14.7867C166.514 14.7867 166.83 14.4884 166.841 14.1087C166.852 13.7235 166.547 13.4035 166.159 13.3926C163.514 13.3167 162.386 12.8068 162.2 11.5809C162.702 9.90481 163.989 8.54331 166.127 7.4259C166.47 7.2469 166.601 6.8238 166.421 6.48207C166.241 6.14034 165.816 6.01016 165.472 6.18916C162.915 7.52354 161.388 9.2105 160.81 11.3423C160.788 11.4236 160.782 11.5104 160.788 11.5918C161.082 14.6402 164.611 14.7433 166.116 14.7867C166.121 14.7867 166.132 14.7867 166.138 14.7867Z" fill="#408F95"/>
<path d="M137.104 128.67C137.328 128.67 137.546 128.562 137.682 128.366C137.998 127.905 138.173 127.417 138.2 126.918C138.326 124.466 134.923 122.774 132.436 121.537C129.867 120.257 127.081 119.324 124.158 118.76C123.776 118.689 123.411 118.934 123.334 119.313C123.258 119.693 123.509 120.056 123.891 120.132C126.688 120.675 129.349 121.564 131.809 122.785C133.707 123.729 136.875 125.307 136.799 126.848C136.788 127.086 136.695 127.33 136.526 127.574C136.308 127.895 136.39 128.328 136.706 128.545C136.826 128.627 136.968 128.67 137.104 128.67Z" fill="#408F95"/>
<path d="M127.626 134.968C127.691 134.968 127.762 134.957 127.828 134.935C129.131 134.539 130.418 134.084 131.65 133.579C132.19 133.357 132.927 133.053 133.881 132.576C134.748 132.136 135.604 131.654 136.411 131.133C136.449 131.106 136.488 131.079 136.52 131.046C136.559 131.008 136.624 130.954 136.7 130.883C137.617 130.07 138.495 129.202 138.271 128.361C138.205 128.117 137.993 127.688 137.289 127.542C136.913 127.461 136.537 127.699 136.455 128.079C136.389 128.377 136.531 128.67 136.777 128.822C136.629 129.017 136.335 129.337 135.762 129.842C135.697 129.901 135.637 129.95 135.593 129.994C134.841 130.476 134.05 130.927 133.243 131.333C132.338 131.789 131.629 132.082 131.111 132.294C129.922 132.782 128.678 133.227 127.419 133.606C127.048 133.72 126.841 134.111 126.95 134.48C127.042 134.783 127.321 134.973 127.62 134.973L127.626 134.968Z" fill="#408F95"/>
<path d="M121.534 135.364C123.394 135.364 125.265 135.288 127.119 135.131C127.506 135.098 127.789 134.762 127.757 134.377C127.724 133.991 127.38 133.709 126.999 133.742C124.572 133.943 122.118 134.013 119.702 133.943C119.653 133.943 114.178 133.747 109.635 132.798C108.234 132.505 106.821 132.115 105.447 131.626C104.836 131.409 104.503 131.274 103.107 130.699L101.422 130.005C100.948 129.809 100.528 129.63 100.141 129.468C98.9192 128.952 98.0357 128.578 96.9778 128.307C95.5381 127.932 94.0166 127.759 92.446 127.797C92.0588 127.808 91.7534 128.128 91.7589 128.513C91.7698 128.898 92.0806 129.202 92.4787 129.196C93.9184 129.164 95.309 129.321 96.6233 129.657C97.5831 129.907 98.4229 130.26 99.5899 130.753C99.9826 130.921 100.408 131.1 100.888 131.296L102.573 131.99C103.958 132.559 104.329 132.711 104.978 132.939C106.412 133.444 107.885 133.856 109.346 134.16C114.014 135.131 119.429 135.326 119.658 135.331C120.28 135.348 120.907 135.358 121.529 135.358L121.534 135.364Z" fill="#408F95"/>
<path d="M91.7753 124.146C91.7753 124.146 91.7917 124.146 91.8026 124.146C92.1953 124.13 92.5933 124.092 92.9805 124.038C93.9021 123.902 94.5947 123.68 94.8947 123.582L94.9765 123.555C98.074 122.606 101.248 121.776 104.405 121.098C107.312 120.474 109.608 119.98 112.629 119.704C115.819 119.411 119.07 119.433 122.293 119.769C122.68 119.807 123.023 119.53 123.061 119.145C123.1 118.76 122.821 118.418 122.434 118.38C119.119 118.039 115.776 118.017 112.498 118.315C109.39 118.597 107.056 119.102 104.105 119.736C100.904 120.425 97.6923 121.261 94.5566 122.226L94.4529 122.259C94.1912 122.345 93.575 122.541 92.7679 122.66C92.4516 122.709 92.1298 122.736 91.8135 122.752C91.2954 122.66 90.7774 122.53 90.2756 122.362C89.6649 122.161 89.2341 121.955 89.0704 121.879C87.4072 121.103 83.5789 119.682 80.2578 118.727C78.3818 118.185 76.9421 117.87 75.1479 117.843C74.6081 117.832 74.0573 117.854 73.5228 117.903C73.1356 117.935 72.8521 118.277 72.8848 118.662C72.9175 119.047 73.2611 119.33 73.6483 119.297C74.1391 119.254 74.6353 119.237 75.1316 119.243C76.7621 119.264 78.1037 119.563 79.8651 120.073C83.4589 121.109 87.1127 122.514 88.4542 123.137C88.656 123.23 89.1413 123.457 89.8285 123.685C90.4229 123.881 91.0337 124.032 91.6499 124.141C91.6881 124.146 91.7262 124.152 91.7699 124.152L91.7753 124.146Z" fill="#408F95"/>
<path d="M75.6112 136.953C75.7039 136.953 75.8021 136.931 75.8948 136.893L83.6386 133.482C85.062 132.771 86.4417 132.012 87.7723 131.214C88.7703 130.617 89.7737 129.977 90.7389 129.327C91.0607 129.11 91.1425 128.676 90.9243 128.356C90.7062 128.036 90.2699 127.954 89.9482 128.171C88.9993 128.811 88.0232 129.435 87.047 130.021C85.7436 130.802 84.3912 131.545 83.0333 132.223L75.3222 135.619C74.9677 135.776 74.8096 136.188 74.9623 136.541C75.0768 136.801 75.3331 136.959 75.6058 136.959L75.6112 136.953Z" fill="#408F95"/>
<path d="M75.6113 136.953C75.8131 136.953 76.0094 136.866 76.1457 136.704C77.5636 135.033 78.6652 133.189 79.4232 131.225C80.0613 129.576 80.563 128.274 80.3503 126.566C80.1104 124.634 79.096 123.354 77.8145 121.732L77.7054 121.591C76.6529 120.257 75.4095 119.064 74.008 118.039C73.6972 117.811 73.2554 117.876 73.0264 118.185C72.7973 118.494 72.8628 118.934 73.1736 119.161C74.4716 120.116 75.6277 121.223 76.5984 122.454L76.7074 122.595C77.8963 124.103 78.7579 125.193 78.9542 126.739C79.1233 128.101 78.7197 129.142 78.109 130.721C77.4055 132.538 76.3802 134.246 75.066 135.803C74.8151 136.096 74.8533 136.541 75.1478 136.785C75.2787 136.893 75.4422 136.948 75.6004 136.948L75.6113 136.953Z" fill="#408F95"/>
<path d="M122.734 131.203C124.343 131.203 125.586 130.601 126.23 130.211C126.557 130.01 126.661 129.576 126.459 129.251C126.257 128.925 125.826 128.822 125.494 129.023C124.916 129.375 123.716 129.945 122.178 129.777C120.64 129.609 119.691 128.8 119.059 128.263C118.966 128.187 118.895 128.117 118.835 128.063C119.211 127.976 119.86 127.922 120.782 127.9C122.32 127.862 123.901 128.041 125.483 128.421C125.859 128.513 126.241 128.28 126.333 127.905C126.426 127.531 126.192 127.151 125.815 127.059C124.114 126.647 122.407 126.457 120.749 126.495C118.971 126.538 117.483 126.658 117.237 127.688C117.09 128.318 117.613 128.865 118.148 129.321C118.819 129.891 120.062 130.943 122.025 131.16C122.271 131.187 122.505 131.198 122.734 131.198V131.203Z" fill="#408F95"/>
<path d="M128.946 132.825C129.153 132.825 129.36 132.733 129.502 132.554C129.742 132.25 129.682 131.811 129.376 131.572C128.264 130.715 127.391 129.663 126.775 128.453C126.448 127.813 126.202 127.13 126.039 126.419C125.952 126.045 125.575 125.812 125.199 125.898C124.823 125.985 124.588 126.359 124.676 126.734C124.866 127.553 125.15 128.339 125.526 129.082C126.235 130.482 127.244 131.692 128.52 132.679C128.646 132.776 128.798 132.825 128.951 132.825H128.946Z" fill="#408F95"/>
<path d="M133.226 126.408C133.226 126.408 133.237 126.408 133.248 126.408C133.995 126.397 134.601 125.779 134.59 125.036C134.579 124.287 133.979 123.691 133.21 123.702C132.845 123.702 132.507 123.853 132.256 124.114C132.005 124.374 131.868 124.716 131.874 125.074C131.885 125.812 132.496 126.408 133.232 126.408H133.226ZM133.27 125.052C133.27 125.052 133.254 125.09 133.226 125.096C133.205 125.096 133.183 125.074 133.183 125.052H133.27ZM133.27 125.052H133.183C133.183 125.052 133.21 124.992 133.226 125.009C133.248 125.009 133.27 125.025 133.27 125.052Z" fill="#408F95"/>
<path d="M115.339 138C116.316 138 117.292 137.908 118.252 137.723C121.758 137.056 123.727 136.324 126.988 135.109C127.353 134.973 127.533 134.572 127.397 134.208C127.261 133.845 126.857 133.666 126.492 133.802C123.187 135.033 121.371 135.706 117.984 136.351C117.106 136.519 116.234 136.601 115.318 136.601C114.669 136.601 114.014 136.552 113.371 136.465C112.973 136.411 112.607 136.286 112.395 136.183C112.667 135.933 113.349 135.478 114.745 134.881C115.099 134.729 115.269 134.317 115.11 133.964C114.958 133.612 114.543 133.444 114.189 133.601C111.048 134.941 110.759 135.798 110.889 136.454C111.097 137.479 112.689 137.783 113.169 137.848C113.883 137.946 114.636 137.995 115.329 138H115.339Z" fill="#408F95"/>
<path d="M100.953 135.781C101.204 135.781 101.455 135.776 101.706 135.765C104.138 135.657 106.576 134.995 108.752 133.856C109.095 133.677 109.226 133.254 109.046 132.912C108.866 132.57 108.441 132.44 108.097 132.619C106.101 133.661 103.871 134.268 101.641 134.366C100.065 134.436 98.4885 134.263 96.9561 133.85C97.1524 133.254 97.4687 132.592 97.8995 132.163C98.074 131.99 98.3303 131.729 98.7502 131.55C98.8757 131.496 98.9684 131.469 99.1811 131.399L99.3556 131.344C99.8573 131.187 100.261 131.051 100.533 130.959C100.899 130.834 101.095 130.439 100.97 130.07C100.844 129.706 100.446 129.511 100.075 129.636C99.8137 129.728 99.4156 129.858 98.9302 130.015L98.7557 130.07C98.4667 130.162 98.3467 130.2 98.1776 130.276C97.5232 130.563 97.1033 130.981 96.9015 131.182C95.8872 132.196 95.5055 133.742 95.4128 134.192C95.3419 134.545 95.5436 134.892 95.8872 135C97.5341 135.521 99.2356 135.781 100.948 135.781H100.953Z" fill="#408F95"/>
<path d="M98.8808 122.411C99.2517 122.411 99.5625 122.118 99.5843 121.743C99.6007 121.358 99.3007 121.033 98.9135 121.011C98.2264 120.978 97.6211 120.924 97.0594 120.837C96.6777 120.783 96.3177 121.044 96.2632 121.423C96.2087 121.803 96.4704 122.161 96.8522 122.215C97.4629 122.307 98.1174 122.367 98.8481 122.4C98.859 122.4 98.8699 122.4 98.8808 122.4V122.411Z" fill="#408F95"/>
<path d="M96.956 122.231C97.3214 122.231 97.6322 121.949 97.654 121.581C97.6813 121.195 97.3868 120.865 96.9996 120.837C95.1945 120.724 94.2893 120.138 94.2129 119.644C94.142 119.188 94.7692 118.424 96.3125 117.811C96.6724 117.67 96.8469 117.263 96.7051 116.905C96.5633 116.547 96.1543 116.373 95.7944 116.514C93.733 117.328 92.6205 118.576 92.8278 119.861C93.0404 121.195 94.5674 122.08 96.9124 122.226C96.9287 122.226 96.9451 122.226 96.956 122.226V122.231Z" fill="#408F95"/>
<path d="M120.258 117.827C120.58 117.827 120.869 117.605 120.94 117.285C121.027 116.91 120.787 116.536 120.411 116.449C114.549 115.131 108.632 114.757 102.818 115.337C101.188 115.5 99.541 115.739 97.9268 116.053C97.545 116.129 97.2996 116.493 97.3705 116.872C97.4469 117.252 97.8122 117.496 98.194 117.426C99.7645 117.122 101.368 116.889 102.96 116.726C108.621 116.162 114.391 116.525 120.1 117.811C120.155 117.822 120.204 117.827 120.253 117.827H120.258Z" fill="#408F95"/>
<path d="M128.63 121.391C128.859 121.391 129.082 121.277 129.218 121.076C129.431 120.751 129.338 120.322 129.017 120.111C128.041 119.476 127.015 118.896 125.968 118.397C124.97 117.914 123.923 117.491 122.865 117.138C122.62 117.057 122.407 116.986 122.26 116.943C121.895 116.829 121.496 117.035 121.382 117.398C121.267 117.767 121.475 118.158 121.84 118.272C121.982 118.315 122.178 118.38 122.413 118.456C123.416 118.793 124.403 119.194 125.352 119.65C126.345 120.127 127.315 120.675 128.242 121.277C128.362 121.353 128.493 121.391 128.624 121.391H128.63Z" fill="#408F95"/>
<path d="M117.908 117.984C118.017 117.984 118.121 117.941 118.197 117.854C118.339 117.697 118.323 117.453 118.164 117.312C118.088 117.247 117.973 117.149 117.832 117.035C117.297 116.617 116.708 116.276 116.076 116.01C115.59 115.804 115.072 115.646 114.549 115.543C114.342 115.5 114.134 115.636 114.096 115.847C114.058 116.059 114.189 116.259 114.402 116.297C114.876 116.389 115.339 116.531 115.776 116.715C116.343 116.954 116.877 117.268 117.357 117.637C117.483 117.735 117.586 117.827 117.657 117.887C117.728 117.952 117.821 117.984 117.913 117.984H117.908Z" fill="#408F95"/>
<path d="M114.254 117.87C114.38 117.87 114.505 117.805 114.581 117.691C114.696 117.512 114.647 117.274 114.467 117.16C114.385 117.106 114.265 117.03 114.118 116.943C113.567 116.612 112.973 116.303 112.367 116.037C111.893 115.825 111.413 115.641 110.928 115.478C110.726 115.413 110.508 115.522 110.437 115.722C110.371 115.923 110.481 116.14 110.682 116.211C111.14 116.362 111.604 116.541 112.051 116.742C112.629 116.997 113.191 117.29 113.72 117.605C113.862 117.686 113.976 117.762 114.052 117.811C114.118 117.854 114.189 117.87 114.26 117.87H114.254Z" fill="#408F95"/>
<path d="M109.635 117.876C109.755 117.876 109.869 117.822 109.946 117.718C110.071 117.55 110.039 117.306 109.864 117.181C109.782 117.122 109.668 117.035 109.52 116.937C108.975 116.569 108.386 116.248 107.764 115.977C107.285 115.771 106.788 115.592 106.287 115.457C106.079 115.397 105.867 115.522 105.812 115.728C105.758 115.934 105.878 116.145 106.085 116.2C106.548 116.324 107.012 116.487 107.459 116.682C108.037 116.932 108.582 117.23 109.09 117.572C109.226 117.664 109.335 117.74 109.406 117.794C109.477 117.843 109.553 117.87 109.635 117.87V117.876Z" fill="#408F95"/>
<path d="M100.708 132.728C100.708 132.728 100.746 132.728 100.762 132.728L103.876 132.299C104.089 132.272 104.236 132.077 104.203 131.865C104.176 131.654 103.974 131.507 103.767 131.54L100.653 131.968C100.441 131.995 100.293 132.191 100.326 132.402C100.353 132.592 100.517 132.733 100.708 132.733V132.728Z" fill="#408F95"/>
<path d="M80.683 132.093C80.7866 132.093 80.8957 132.066 80.9938 132.001C81.9318 131.409 82.7662 130.683 83.4642 129.842C84.4022 128.719 85.2802 127.661 85.1657 126.273C85.0457 124.857 83.9605 123.956 82.8098 123.002C81.8664 122.221 80.803 121.602 79.6414 121.174C79.3415 121.06 79.0088 121.212 78.8943 121.51C78.7798 121.808 78.9325 122.139 79.2324 122.253C80.2685 122.638 81.2229 123.192 82.0627 123.886C83.1043 124.748 83.9278 125.432 84.0096 126.37C84.0859 127.287 83.4206 128.09 82.5753 129.104C81.9536 129.853 81.212 130.498 80.3721 131.03C80.0995 131.198 80.0231 131.556 80.1922 131.827C80.3013 132.001 80.4921 132.093 80.683 132.093Z" fill="#408F95"/>
<path d="M63.5102 108.47C63.8265 108.47 64.11 108.258 64.1918 107.938C64.3282 107.396 64.3227 106.881 64.17 106.403C63.4284 104.06 59.6437 103.653 56.8843 103.36C54.0267 103.051 51.0873 103.143 48.1534 103.626C47.7717 103.691 47.5099 104.049 47.5753 104.429C47.6408 104.809 47.9952 105.069 48.3824 105.004C51.1909 104.537 54.0049 104.456 56.7316 104.749C58.8366 104.977 62.3649 105.356 62.8285 106.826C62.8994 107.054 62.8994 107.315 62.8285 107.602C62.7358 107.976 62.9648 108.356 63.3411 108.448C63.3956 108.465 63.4556 108.47 63.5102 108.47Z" fill="#408F95"/>
<path d="M56.8352 117.653C56.9824 117.653 57.1351 117.605 57.2605 117.512C58.3458 116.693 59.3874 115.82 60.369 114.914C60.7998 114.518 61.3888 113.976 62.1086 113.2C62.7685 112.489 63.3956 111.741 63.9737 110.971C64.0009 110.933 64.0227 110.895 64.0445 110.851C64.0664 110.803 64.1045 110.732 64.1536 110.64C64.7317 109.56 65.2497 108.443 64.7426 107.727C64.5953 107.521 64.2463 107.195 63.5374 107.298C63.1556 107.353 62.8884 107.711 62.943 108.09C62.9866 108.394 63.2211 108.622 63.5047 108.676C63.4392 108.909 63.2702 109.311 62.9102 109.989C62.8666 110.065 62.8339 110.135 62.8066 110.184C62.2667 110.9 61.6832 111.594 61.0725 112.251C60.3908 112.989 59.8236 113.509 59.4092 113.889C58.4657 114.762 57.4514 115.603 56.4044 116.4C56.0935 116.634 56.039 117.073 56.2735 117.377C56.4098 117.556 56.6225 117.653 56.8297 117.653H56.8352Z" fill="#408F95"/>
<path d="M21.8625 124.439C21.9497 124.439 22.037 124.423 22.1242 124.39C23.4603 123.859 24.8237 123.523 26.1706 123.387C27.1577 123.289 28.0739 123.327 29.3391 123.387C29.7644 123.409 30.228 123.425 30.7406 123.447L32.5675 123.512C34.0617 123.566 34.4598 123.582 35.1469 123.566C36.6684 123.539 38.1899 123.414 39.6678 123.192C44.3795 122.486 49.5275 120.789 49.7456 120.713C52.0797 119.926 54.4083 118.988 56.666 117.935C57.015 117.773 57.1677 117.355 57.0041 117.008C56.8405 116.661 56.4206 116.509 56.0716 116.672C53.863 117.708 51.5889 118.619 49.3039 119.389C49.2548 119.405 44.0578 121.12 39.466 121.808C38.0481 122.02 36.5866 122.139 35.1306 122.166C34.4816 122.177 34.1271 122.166 32.622 122.112L30.7897 122.047C30.2825 122.031 29.8244 122.009 29.399 121.987C28.0739 121.928 27.1141 121.884 26.0289 121.993C24.551 122.139 23.0622 122.508 21.6007 123.089C21.2408 123.23 21.0663 123.636 21.2081 123.994C21.3171 124.266 21.5789 124.434 21.8625 124.434V124.439Z" fill="#408F95"/>
<path d="M0.703537 121.7C0.807152 121.7 0.905304 121.678 1.00347 121.635C1.44519 121.423 1.90873 121.233 2.37227 121.071C3.91013 120.523 5.26802 120.338 7.10035 120.203C10.8305 119.926 14.7515 119.98 16.2239 120.1C16.4475 120.116 16.9874 120.165 17.7072 120.138C18.3289 120.116 18.956 120.046 19.5723 119.932C19.6213 119.921 19.6704 119.91 19.7141 119.888C20.0794 119.736 20.4339 119.563 20.7775 119.378C21.5955 118.934 22.1626 118.483 22.408 118.288L22.4789 118.234C25.0529 116.27 27.736 114.393 30.4572 112.663C32.9603 111.068 34.9399 109.81 37.6775 108.503C40.5678 107.125 43.6217 106.018 46.7574 105.21C47.1337 105.112 47.3573 104.733 47.2591 104.358C47.161 103.984 46.7792 103.762 46.403 103.859C43.1745 104.689 40.0334 105.828 37.0667 107.244C34.2528 108.589 32.2405 109.864 29.6992 111.486C26.9453 113.238 24.224 115.137 21.6227 117.127L21.5355 117.192C21.3173 117.361 20.8156 117.762 20.1012 118.152C19.8231 118.304 19.5341 118.445 19.2396 118.57C18.7215 118.662 18.1871 118.722 17.6581 118.738C17.0201 118.76 16.5402 118.722 16.3602 118.706C14.5279 118.554 10.4433 118.554 6.99674 118.809C5.04443 118.955 3.58838 119.151 1.89783 119.753C1.38521 119.932 0.883499 120.143 0.398148 120.371C0.0491295 120.539 -0.0981369 120.951 0.065464 121.304C0.18544 121.554 0.436314 121.7 0.698078 121.7H0.703537Z" fill="#408F95"/>
<path d="M8.77451 137.55C8.94902 137.55 9.12896 137.485 9.26529 137.349L15.3295 131.469C16.4147 130.308 17.4399 129.12 18.4106 127.911C19.1414 126.999 19.8503 126.061 20.532 125.112C20.7556 124.797 20.6793 124.363 20.3684 124.141C20.0521 123.918 19.6158 123.994 19.3922 124.304C18.7269 125.231 18.0344 126.153 17.32 127.043C16.3711 128.225 15.3677 129.386 14.3315 130.498L8.29461 136.356C8.01648 136.628 8.01102 137.067 8.28369 137.344C8.42002 137.485 8.60543 137.555 8.78539 137.555L8.77451 137.55Z" fill="#408F95"/>
<path d="M8.77438 137.55C9.06341 137.55 9.33061 137.371 9.43422 137.089C10.1759 135.033 10.5631 132.917 10.5849 130.813C10.6067 129.044 10.6176 127.65 9.82143 126.126C8.91616 124.401 7.52008 123.55 5.75318 122.476L5.60051 122.383C4.1499 121.499 2.56296 120.81 0.888766 120.333C0.517936 120.225 0.12531 120.442 0.0216951 120.81C-0.0873728 121.179 0.130733 121.57 0.501563 121.673C2.05578 122.112 3.52274 122.752 4.86428 123.571L5.01699 123.664C6.66391 124.667 7.85276 125.389 8.57261 126.772C9.21066 127.987 9.19429 129.104 9.17793 130.797C9.15612 132.744 8.79618 134.702 8.10905 136.617C7.97817 136.98 8.16906 137.382 8.53443 137.512C8.61078 137.539 8.69258 137.555 8.76893 137.555L8.77438 137.55Z" fill="#408F95"/>
<path d="M48.9879 116.173C49.4569 116.173 49.9641 116.118 50.4985 115.988C52.4072 115.511 53.5742 114.312 54.1032 113.634C54.3432 113.33 54.2886 112.891 53.9832 112.652C53.6778 112.414 53.2361 112.468 52.9962 112.772C52.5763 113.303 51.6546 114.252 50.1549 114.627C48.6553 115.001 47.4773 114.572 46.7029 114.29C46.5884 114.247 46.4957 114.214 46.4194 114.176C46.7411 113.965 47.3355 113.688 48.1917 113.352C49.6151 112.788 51.1584 112.403 52.778 112.213C53.1652 112.169 53.4379 111.822 53.3943 111.437C53.3506 111.052 53.0016 110.775 52.6144 110.824C50.8748 111.03 49.206 111.443 47.6682 112.056C46.0158 112.712 44.6634 113.341 44.7943 114.388C44.8706 115.028 45.5577 115.359 46.223 115.598C46.8175 115.815 47.7827 116.167 48.9934 116.167L48.9879 116.173Z" fill="#408F95"/>
<path d="M57.3206 115.191C57.6206 115.191 57.8987 115.001 57.9914 114.703C58.1059 114.334 57.9041 113.943 57.5333 113.829C56.1918 113.412 55.0029 112.728 53.9995 111.806C53.4705 111.318 52.9961 110.765 52.5925 110.157C52.3799 109.837 51.9436 109.745 51.6218 109.956C51.3001 110.168 51.2074 110.602 51.4201 110.922C51.8836 111.622 52.4289 112.262 53.0397 112.826C54.1958 113.889 55.5646 114.675 57.1079 115.158C57.1788 115.18 57.2497 115.191 57.3206 115.191Z" fill="#408F95"/>
<path d="M58.8529 107.732C59.022 107.732 59.1856 107.7 59.3437 107.64C60.0418 107.369 60.3908 106.582 60.1181 105.888C59.8455 105.194 59.0547 104.847 58.3567 105.118C57.6587 105.389 57.3096 106.176 57.5823 106.87C57.7132 107.206 57.9695 107.472 58.3022 107.618C58.4767 107.694 58.6621 107.732 58.8475 107.732H58.8529ZM58.8966 106.365C58.9075 106.387 58.8966 106.414 58.8693 106.42C58.8529 106.425 58.8202 106.414 58.8148 106.393L58.8966 106.36V106.365ZM58.8966 106.365L58.8148 106.398C58.8148 106.398 58.8148 106.349 58.842 106.344C58.8639 106.338 58.8911 106.349 58.8966 106.371V106.365Z" fill="#408F95"/>
<path d="M43.4797 125.443C43.9323 125.443 44.3467 125.367 44.5485 125.323C45.2465 125.172 45.9391 124.971 46.6045 124.721C47.5261 124.385 48.415 123.951 49.2548 123.447C52.3087 121.608 53.8956 120.235 56.5296 117.968C56.8241 117.713 56.8568 117.274 56.6005 116.981C56.3442 116.688 55.9025 116.655 55.608 116.91C52.9413 119.205 51.4743 120.474 48.524 122.253C47.7606 122.714 46.948 123.105 46.1136 123.414C45.5083 123.636 44.8757 123.821 44.2431 123.962C43.8505 124.049 43.4633 124.06 43.2288 124.032C43.3924 123.702 43.8777 123.04 44.9739 121.998C45.252 121.733 45.2629 121.288 44.9957 121.011C44.7285 120.734 44.2813 120.724 44.0032 120.989C41.5328 123.338 41.5601 124.239 41.9145 124.808C42.2308 125.313 42.8798 125.448 43.4688 125.448L43.4797 125.443Z" fill="#408F95"/>
<path d="M27.3104 128.643C27.3104 128.643 27.3323 128.643 27.3432 128.643C29.3227 128.545 31.2478 128.112 33.0638 127.347C35.3051 126.403 37.3556 124.938 38.9971 123.116C39.2534 122.828 39.2316 122.389 38.9425 122.128C38.6535 121.868 38.2118 121.895 37.95 122.183C36.4449 123.853 34.5635 125.193 32.513 126.061C31.0569 126.674 29.5245 127.059 27.943 127.2C27.9212 126.663 27.9539 125.909 28.2375 125.296C28.3411 125.074 28.4938 124.743 28.8156 124.423C28.9137 124.331 28.9901 124.271 29.1646 124.135L29.3118 124.022C29.7263 123.702 30.059 123.43 30.2771 123.251C30.577 123.007 30.6206 122.568 30.3752 122.27C30.1298 121.971 29.6881 121.928 29.3882 122.172C29.1755 122.345 28.8483 122.611 28.4447 122.92L28.303 123.034C28.063 123.219 27.9648 123.3 27.834 123.425C27.3213 123.924 27.0759 124.461 26.956 124.716C26.3616 126.012 26.5415 127.596 26.6124 128.052C26.6669 128.394 26.9614 128.643 27.305 128.643H27.3104Z" fill="#408F95"/>
<path d="M23.6239 116.352C23.673 116.352 23.7221 116.352 23.7711 116.335C24.371 116.211 25.0091 116.037 25.7071 115.815C26.0779 115.695 26.2797 115.305 26.1597 114.936C26.0397 114.567 25.6471 114.366 25.2763 114.486C24.6219 114.692 24.0329 114.854 23.4767 114.968C23.0949 115.05 22.855 115.419 22.9368 115.798C23.0077 116.129 23.2967 116.352 23.6239 116.352Z" fill="#408F95"/>
<path d="M21.6607 116.677C22.3042 116.677 23.0295 116.563 23.8256 116.324C24.1965 116.216 24.4092 115.825 24.2946 115.457C24.1856 115.088 23.7929 114.876 23.4221 114.99C21.6879 115.505 20.6354 115.272 20.39 114.838C20.161 114.437 20.4827 113.498 21.7152 112.397C22.0042 112.137 22.026 111.698 21.7697 111.41C21.5079 111.123 21.0663 111.101 20.7772 111.356C19.1303 112.831 18.525 114.388 19.1685 115.522C19.5993 116.281 20.4827 116.677 21.6607 116.677Z" fill="#408F95"/>
<path d="M22.9806 111.47C23.106 111.47 23.2314 111.437 23.3459 111.367C24.7147 110.537 26.1326 109.761 27.5669 109.061C32.6767 106.572 38.2064 104.912 44.0143 104.136C44.396 104.087 44.6687 103.735 44.6141 103.35C44.5596 102.97 44.2106 102.699 43.8234 102.753C37.8683 103.55 32.1913 105.253 26.9452 107.808C25.4727 108.524 24.0112 109.322 22.6097 110.179C22.2771 110.379 22.1734 110.808 22.3752 111.139C22.5061 111.356 22.7406 111.475 22.9751 111.475L22.9806 111.47Z" fill="#408F95"/>
<path d="M53.0177 104.581C53.3394 104.581 53.6285 104.364 53.6994 104.038C53.7866 103.664 53.5467 103.29 53.1704 103.203C52.0361 102.948 50.869 102.758 49.7129 102.65C48.6059 102.547 47.4825 102.509 46.3646 102.547C46.1028 102.552 45.8846 102.563 45.7265 102.574C45.3393 102.596 45.0448 102.921 45.0612 103.306C45.0775 103.691 45.4157 103.984 45.7974 103.968C45.9446 103.962 46.1519 103.952 46.4027 103.941C47.4607 103.908 48.5295 103.941 49.5766 104.044C50.6782 104.147 51.7798 104.32 52.8541 104.565C52.9086 104.575 52.9577 104.581 53.0122 104.581H53.0177Z" fill="#408F95"/>
<path d="M41.8877 105.085C42.0404 105.085 42.1876 104.993 42.2476 104.841C42.3239 104.64 42.2258 104.418 42.024 104.342C41.9258 104.304 41.784 104.255 41.615 104.201C40.9715 103.995 40.2953 103.876 39.6081 103.849C39.0792 103.827 38.5393 103.854 38.0103 103.941C37.7976 103.973 37.6558 104.174 37.6886 104.38C37.7213 104.592 37.9231 104.727 38.1303 104.7C38.6047 104.624 39.0901 104.597 39.5645 104.619C40.1808 104.646 40.7915 104.754 41.3696 104.939C41.5223 104.988 41.6477 105.036 41.735 105.069C41.7786 105.085 41.8277 105.096 41.8713 105.096L41.8877 105.085Z" fill="#408F95"/>
<path d="M38.419 106.246C38.599 106.246 38.7572 106.121 38.7953 105.942C38.839 105.736 38.7081 105.53 38.5008 105.487C38.4081 105.465 38.2664 105.438 38.0973 105.405C37.4647 105.286 36.8048 105.205 36.1341 105.161C35.616 105.129 35.0979 105.118 34.5908 105.134C34.3781 105.14 34.209 105.319 34.2145 105.53C34.2199 105.742 34.4108 105.894 34.6126 105.904C35.0979 105.888 35.5887 105.899 36.085 105.926C36.7176 105.964 37.3502 106.045 37.9501 106.159C38.1082 106.192 38.2445 106.219 38.3318 106.235C38.3591 106.241 38.3863 106.246 38.4136 106.246H38.419Z" fill="#408F95"/>
<path d="M34.0946 107.852C34.2637 107.852 34.4164 107.743 34.4655 107.575C34.5255 107.369 34.4055 107.157 34.2037 107.098C34.1055 107.071 33.9692 107.033 33.7947 106.989C33.1567 106.832 32.4914 106.734 31.8151 106.702C31.2916 106.675 30.7626 106.68 30.25 106.729C30.0373 106.745 29.8792 106.935 29.901 107.147C29.9228 107.358 30.1137 107.515 30.3209 107.494C30.8008 107.45 31.2916 107.445 31.777 107.472C32.4041 107.505 33.0258 107.597 33.6147 107.743C33.7729 107.781 33.9038 107.819 33.991 107.841C34.0292 107.852 34.0619 107.857 34.1001 107.857L34.0946 107.852Z" fill="#408F95"/>
<path d="M30.9314 124.868C30.9913 124.868 31.0568 124.851 31.1168 124.819L33.8816 123.338C34.0671 123.235 34.138 123.002 34.0398 122.817C33.9362 122.633 33.7017 122.562 33.5163 122.66L30.7514 124.141C30.566 124.244 30.4951 124.477 30.5933 124.662C30.6641 124.792 30.795 124.862 30.9314 124.862V124.868Z" fill="#408F95"/>
<path d="M11.8663 131.23C12.0408 131.23 12.2153 131.155 12.3298 131.003C13.0006 130.124 13.5296 129.153 13.8895 128.122C14.3748 126.75 14.8275 125.448 14.2331 124.19C13.6223 122.904 12.2916 122.432 10.8792 121.939C9.72309 121.532 8.50698 121.326 7.26906 121.32C6.94731 121.32 6.691 121.575 6.691 121.895C6.691 122.215 6.94731 122.47 7.26906 122.476C8.3761 122.476 9.46131 122.665 10.492 123.029C11.7736 123.479 12.7824 123.832 13.186 124.683C13.5786 125.519 13.2351 126.5 12.7988 127.748C12.4771 128.665 12.008 129.527 11.4082 130.314C11.2118 130.569 11.2664 130.927 11.5172 131.122C11.6209 131.203 11.7463 131.241 11.8663 131.241V131.23Z" fill="#408F95"/>
<path d="M141.635 61.5172C141.881 61.5172 142.126 61.3979 142.273 61.1809C142.699 60.5679 142.928 59.9224 142.96 59.2607C143.129 55.9627 138.434 53.6302 135.009 51.927C131.426 50.1478 127.544 48.846 123.475 48.0595C123.056 47.9781 122.652 48.2493 122.57 48.667C122.488 49.0847 122.761 49.4861 123.181 49.5674C127.113 50.3268 130.865 51.5853 134.317 53.2994C137.016 54.6446 141.532 56.8902 141.417 59.1847C141.401 59.5536 141.259 59.9333 140.997 60.313C140.757 60.6656 140.844 61.1429 141.199 61.3816C141.33 61.4738 141.483 61.5172 141.635 61.5172Z" fill="#408F95"/>
<path d="M128.373 70.3317C128.449 70.3317 128.525 70.3208 128.596 70.2991C130.412 69.7513 132.206 69.1112 133.93 68.4061C134.682 68.0969 135.713 67.6738 137.038 67.0066C138.249 66.3991 139.432 65.721 140.567 64.9942C140.61 64.967 140.648 64.9345 140.687 64.9019C140.741 64.8477 140.834 64.7663 140.943 64.6687C142.181 63.573 143.364 62.4122 143.081 61.3436C143.004 61.0507 142.742 60.5299 141.87 60.3455C141.455 60.2587 141.041 60.5191 140.954 60.9368C140.866 61.3382 141.117 61.7341 141.51 61.8372C141.363 62.1084 140.943 62.602 139.918 63.5187C139.819 63.6055 139.738 63.6815 139.672 63.7357C138.603 64.4192 137.485 65.0538 136.346 65.6288C135.075 66.2689 134.077 66.6811 133.346 66.9795C131.672 67.6683 129.922 68.2867 128.155 68.8237C127.746 68.9485 127.517 69.377 127.642 69.7838C127.746 70.1147 128.051 70.3317 128.384 70.3317H128.373Z" fill="#408F95"/>
<path d="M119.849 70.8849C122.445 70.8849 125.057 70.7765 127.647 70.5595C128.073 70.5215 128.389 70.1527 128.351 69.7296C128.318 69.3065 127.942 68.9919 127.517 69.0298C124.108 69.3173 120.667 69.4095 117.28 69.3119C117.21 69.3119 109.531 69.0352 103.151 67.7063C101.177 67.294 99.1916 66.7408 97.2611 66.0627C96.3995 65.759 95.9359 65.5691 93.9836 64.7663L91.6168 63.7954C90.957 63.5241 90.368 63.2746 89.8227 63.0468C88.1158 62.3254 86.8833 61.8101 85.4163 61.4249C83.4204 60.9042 81.3099 60.671 79.1286 60.7198C78.7032 60.7306 78.3651 61.0832 78.376 61.5063C78.3869 61.9294 78.7577 62.2549 79.1667 62.2549C81.2008 62.206 83.1695 62.4284 85.0237 62.9112C86.3816 63.2638 87.5704 63.7682 89.2173 64.4571C89.7627 64.6904 90.3571 64.9399 91.0224 65.2111L93.3892 66.1821C95.3197 66.9794 95.8378 67.191 96.743 67.5056C98.739 68.2053 100.789 68.7803 102.834 69.2034C109.351 70.5595 117.155 70.8361 117.237 70.8415C118.104 70.8687 118.976 70.8795 119.854 70.8795L119.849 70.8849Z" fill="#408F95"/>
<path d="M78.1796 55.187C78.1796 55.187 78.2014 55.187 78.2123 55.187C78.7577 55.1653 79.303 55.1165 79.8374 55.0351C81.1135 54.8507 82.0733 54.5415 82.4823 54.4059L82.6023 54.3679C86.9486 53.0335 91.3932 51.8781 95.8213 50.9235C99.895 50.0447 103.118 49.3558 107.361 48.9653C111.838 48.5585 116.408 48.5856 120.934 49.0521C121.36 49.1009 121.741 48.7917 121.785 48.3686C121.829 47.9455 121.523 47.5658 121.098 47.5224C116.473 47.0451 111.805 47.018 107.224 47.4302C102.889 47.8262 99.6278 48.5259 95.4996 49.4155C91.0278 50.3756 86.5342 51.5473 82.1497 52.8925L82.0079 52.9359C81.637 53.0552 80.7645 53.3373 79.6193 53.5054C79.1612 53.5705 78.6977 53.6194 78.2341 53.6356C77.487 53.5054 76.7453 53.321 76.0255 53.0823C75.1639 52.7949 74.5476 52.5074 74.3131 52.3989C71.9954 51.3194 66.6457 49.3341 62.0103 47.9998C59.3981 47.2458 57.4022 46.8064 54.9154 46.7739C54.1628 46.763 53.4048 46.7901 52.6632 46.8552C52.2378 46.8932 51.9215 47.2675 51.9597 47.6906C51.9979 48.1137 52.3687 48.4283 52.7995 48.3903C53.4921 48.3306 54.1956 48.3089 54.8991 48.3144C57.2058 48.3469 59.0982 48.7646 61.5849 49.4806C66.6293 50.9343 71.7609 52.9088 73.6424 53.7821C73.9205 53.9123 74.5967 54.2269 75.5456 54.5415C76.3691 54.8127 77.2143 55.0243 78.0651 55.1707C78.1087 55.1761 78.1523 55.1816 78.196 55.1816L78.1796 55.187Z" fill="#408F95"/>
<path d="M55.5483 73.1143C55.652 73.1143 55.761 73.0926 55.8592 73.0492L66.7005 68.2759C68.6746 67.2886 70.6052 66.2255 72.4702 65.1135C73.8717 64.2727 75.2678 63.3831 76.6148 62.4718C76.9693 62.2332 77.0565 61.7558 76.8166 61.4032C76.5766 61.0507 76.0967 60.9584 75.7423 61.2025C74.4171 62.0976 73.0483 62.9709 71.6686 63.7954C69.8362 64.8911 67.9439 65.9325 66.0352 66.8872L55.232 71.6444C54.8394 71.8179 54.6649 72.2681 54.8394 72.6587C54.9648 72.9462 55.2484 73.1143 55.5483 73.1143Z" fill="#408F95"/>
<path d="M55.5483 73.1143C55.7664 73.1143 55.9845 73.0221 56.1372 72.8431C58.1059 70.5215 59.6383 67.9612 60.6908 65.2328C61.5743 62.9492 62.2669 61.1483 61.9778 58.8104C61.6452 56.1633 60.2436 54.3896 58.4713 52.1439L58.3186 51.9486C56.8571 50.099 55.1338 48.4391 53.1815 47.0125C52.8379 46.763 52.3526 46.8335 52.1017 47.1753C51.8509 47.517 51.9218 47.9997 52.2653 48.2493C54.1031 49.5945 55.7282 51.1567 57.1025 52.8979L57.2552 53.0932C58.9457 55.2304 60.1673 56.7763 60.4454 59.0003C60.6908 60.953 60.1182 62.4338 59.2511 64.6795C58.2586 67.2506 56.8135 69.6645 54.9539 71.8505C54.6812 72.1759 54.7193 72.6587 55.0466 72.9353C55.1938 73.0547 55.3683 73.1143 55.5428 73.1143H55.5483Z" fill="#408F95"/>
<path d="M121.523 65.0647C123.726 65.0647 125.428 64.2402 126.306 63.7032C126.671 63.4808 126.78 63.0089 126.557 62.6454C126.333 62.282 125.859 62.1681 125.493 62.3959C124.659 62.9058 122.93 63.7249 120.721 63.4808C118.507 63.2367 117.144 62.0759 116.239 61.311C115.95 61.0669 115.775 60.8879 115.672 60.7686C116.037 60.6276 116.888 60.4865 118.78 60.4377C120.945 60.3889 123.181 60.633 125.417 61.1754C125.831 61.2785 126.251 61.0236 126.349 60.6113C126.453 60.1991 126.197 59.7814 125.782 59.6837C123.415 59.1088 121.043 58.8484 118.742 58.9026C116.43 58.9569 114.33 59.1142 114.019 60.4106C113.872 61.029 114.221 61.6311 115.23 62.4881C116.211 63.3235 117.858 64.7175 120.547 65.0158C120.88 65.0538 121.207 65.0701 121.518 65.0701L121.523 65.0647Z" fill="#408F95"/>
<path d="M130.222 67.3375C130.451 67.3375 130.68 67.2344 130.832 67.0391C131.094 66.7028 131.034 66.2201 130.696 65.9597C129.115 64.7392 127.871 63.2475 126.993 61.5226C126.53 60.6113 126.175 59.635 125.941 58.6315C125.842 58.2192 125.428 57.9588 125.014 58.0565C124.599 58.1541 124.337 58.5664 124.436 58.9786C124.697 60.1069 125.095 61.1972 125.613 62.2169C126.59 64.148 127.98 65.8132 129.747 67.1747C129.889 67.2832 130.052 67.3375 130.222 67.3375Z" fill="#408F95"/>
<path d="M136.21 58.3493C136.21 58.3493 136.226 58.3493 136.237 58.3493C137.169 58.3385 137.922 57.5682 137.905 56.6407C137.895 55.7185 137.137 54.9808 136.21 54.9808C136.204 54.9808 136.193 54.9808 136.188 54.9808C135.255 54.9917 134.503 55.7619 134.519 56.6895C134.53 57.6116 135.288 58.3493 136.215 58.3493H136.21ZM136.21 56.5159C136.291 56.5159 136.357 56.581 136.357 56.6624C136.357 56.7112 136.335 56.7492 136.313 56.7654C136.291 56.7871 136.259 56.8088 136.21 56.8088C136.133 56.8088 136.062 56.7437 136.057 56.6624C136.057 56.581 136.122 56.5159 136.204 56.5105L136.21 56.5159Z" fill="#408F95"/>
<path d="M111.167 74.5789C112.52 74.5789 113.878 74.4487 115.208 74.1992C120.1 73.2662 122.848 72.2465 127.407 70.5487C127.806 70.4022 128.007 69.9574 127.86 69.5614C127.707 69.1655 127.266 68.9648 126.868 69.1112C122.232 70.8361 119.68 71.7854 114.919 72.6913C113.687 72.9245 112.422 73.0438 111.173 73.0438H111.151C110.235 73.0438 109.308 72.9788 108.397 72.8486C107.628 72.7401 106.968 72.4743 106.734 72.2953C106.957 72.0024 107.846 71.2701 110.267 70.234C110.66 70.0659 110.84 69.6157 110.671 69.2251C110.502 68.8346 110.049 68.6556 109.657 68.8237C105.376 70.6517 105.005 71.7963 105.163 72.5882C105.43 73.9226 107.726 74.3131 108.179 74.3782C109.16 74.5138 110.158 74.5843 111.145 74.5898H111.173L111.167 74.5789Z" fill="#408F95"/>
<path d="M91.0279 71.4708C91.3769 71.4708 91.7259 71.4654 92.0749 71.4491C95.4506 71.2972 98.8317 70.3805 101.847 68.802C102.224 68.6067 102.371 68.1403 102.169 67.766C101.973 67.3917 101.504 67.2452 101.128 67.4459C98.3081 68.9214 95.1506 69.773 92.004 69.9194C89.6972 70.0225 87.4014 69.7567 85.1709 69.1329C85.3945 68.3898 85.8362 67.2507 86.6052 66.4804C86.8451 66.2417 87.2378 65.8458 87.8594 65.5746C88.023 65.504 88.1485 65.4606 88.4866 65.3576L88.7265 65.2816C89.4246 65.0592 89.9917 64.8694 90.368 64.7392C90.7716 64.6036 90.9842 64.1642 90.8479 63.7628C90.7061 63.3614 90.2698 63.1499 89.8663 63.2855C89.4955 63.4103 88.9447 63.6001 88.2575 63.8171L88.0176 63.893C87.6522 64.0069 87.4722 64.0666 87.2268 64.1697C86.3434 64.5602 85.7981 65.1026 85.509 65.3901C84.1293 66.7679 83.6058 68.8834 83.4804 69.4963C83.3986 69.8815 83.6276 70.2666 84.0039 70.3859C86.2889 71.1074 88.6502 71.4762 91.0224 71.4762L91.0279 71.4708Z" fill="#408F95"/>
<path d="M88.1269 52.7515C88.5359 52.7515 88.8795 52.4315 88.9013 52.0192C88.9231 51.5961 88.5905 51.2381 88.1651 51.2164C87.1999 51.173 86.3437 51.0917 85.5475 50.9777C85.1276 50.9127 84.7295 51.2056 84.6695 51.6232C84.6041 52.0409 84.8985 52.4369 85.3184 52.4966C86.1637 52.6213 87.0744 52.7081 88.0942 52.7515C88.1051 52.7515 88.116 52.7515 88.1324 52.7515H88.1269Z" fill="#408F95"/>
<path d="M85.4326 52.5019C85.8361 52.5019 86.1742 52.1873 86.2015 51.7805C86.2288 51.3574 85.907 50.9886 85.4817 50.9614C82.8259 50.7933 81.5116 49.9145 81.3862 49.1172C81.2771 48.4283 82.0133 47.2892 84.4564 46.3291C84.8545 46.1718 85.0454 45.727 84.8927 45.331C84.7346 44.935 84.2874 44.7397 83.8893 44.897C81.1026 45.9928 79.5975 47.6634 79.8647 49.3558C80.1428 51.1187 82.2096 52.2904 85.389 52.4965C85.4053 52.4965 85.4217 52.4965 85.438 52.4965L85.4326 52.5019Z" fill="#408F95"/>
<path d="M118.055 46.3345C118.409 46.3345 118.726 46.0904 118.808 45.7378C118.9 45.3256 118.638 44.9133 118.224 44.8211C110.038 42.9823 101.777 42.4615 93.6619 43.2698C91.3824 43.4976 89.0865 43.8339 86.8288 44.2678C86.4089 44.3492 86.1362 44.7506 86.218 45.1683C86.2998 45.586 86.7034 45.8572 87.1233 45.7758C89.3319 45.3473 91.5787 45.0164 93.8146 44.794C101.76 44.0021 109.858 44.5119 117.88 46.3182C117.94 46.3291 117.995 46.3399 118.049 46.3399L118.055 46.3345Z" fill="#408F95"/>
<path d="M129.774 51.3248C130.025 51.3248 130.276 51.2001 130.423 50.9777C130.658 50.6251 130.559 50.1478 130.199 49.9145C128.842 49.0304 127.413 48.2276 125.957 47.5278C124.561 46.8552 123.11 46.2694 121.638 45.7758C121.294 45.6619 121 45.5696 120.792 45.5046C120.389 45.3744 119.953 45.6022 119.827 46.009C119.702 46.4158 119.925 46.8444 120.334 46.9691C120.531 47.0288 120.809 47.121 121.141 47.2295C122.554 47.7014 123.944 48.271 125.28 48.911C126.682 49.5836 128.051 50.3539 129.349 51.2001C129.48 51.2869 129.627 51.3248 129.769 51.3248H129.774Z" fill="#408F95"/>
<path d="M114.958 47.376C115.116 47.376 115.279 47.3109 115.394 47.1807C115.606 46.942 115.585 46.5786 115.345 46.3671C115.236 46.2694 115.078 46.1338 114.876 45.9765C114.129 45.3907 113.3 44.9079 112.411 44.5337C111.724 44.2462 111.004 44.0238 110.262 43.8773C109.951 43.8122 109.646 44.0183 109.58 44.333C109.52 44.6476 109.722 44.9459 110.039 45.011C110.698 45.1412 111.342 45.3364 111.958 45.5968C112.754 45.9331 113.496 46.3671 114.161 46.8878C114.341 47.0288 114.483 47.1482 114.581 47.235C114.69 47.3326 114.827 47.3814 114.963 47.3814L114.958 47.376Z" fill="#408F95"/>
<path d="M109.646 46.6437C109.836 46.6437 110.022 46.5515 110.136 46.3779C110.311 46.1121 110.229 45.7541 109.962 45.5805C109.847 45.5046 109.678 45.4015 109.471 45.2768C108.697 44.8103 107.873 44.3818 107.012 44.0021C106.352 43.7091 105.67 43.4433 104.994 43.221C104.688 43.1179 104.361 43.2806 104.258 43.5844C104.154 43.8881 104.318 44.2136 104.623 44.3167C105.267 44.5282 105.91 44.7832 106.537 45.0598C107.35 45.4232 108.135 45.8246 108.866 46.2694C109.062 46.3888 109.22 46.4864 109.329 46.5569C109.427 46.6166 109.537 46.6491 109.64 46.6491L109.646 46.6437Z" fill="#408F95"/>
<path d="M103.184 46.6545C103.364 46.6545 103.538 46.5732 103.653 46.4213C103.843 46.1663 103.789 45.8029 103.533 45.6131C103.418 45.5317 103.254 45.4124 103.053 45.2713C102.289 44.756 101.46 44.3058 100.588 43.9261C99.9115 43.6332 99.2135 43.3891 98.5155 43.1992C98.2046 43.1179 97.8883 43.2969 97.8011 43.6006C97.7138 43.9098 97.8992 44.2244 98.2046 44.3112C98.8536 44.4902 99.4971 44.7181 100.119 44.9838C100.926 45.331 101.689 45.7541 102.393 46.226C102.584 46.3508 102.731 46.4647 102.835 46.5406C102.938 46.6166 103.058 46.6545 103.178 46.6545H103.184Z" fill="#408F95"/>
<path d="M90.6896 67.4459C90.6896 67.4459 90.7441 67.4459 90.7714 67.4405L95.1287 66.8384C95.445 66.795 95.6686 66.5021 95.6249 66.1875C95.5813 65.8729 95.2868 65.6505 94.9705 65.6939L90.6133 66.296C90.297 66.3394 90.0734 66.6323 90.117 66.9469C90.1552 67.2344 90.406 67.4459 90.6896 67.4459Z" fill="#408F95"/>
<path d="M62.6485 66.2851C62.7522 66.2851 62.8612 66.258 62.9594 66.1929C64.2518 65.3738 65.4025 64.3758 66.3678 63.2149C67.6439 61.6799 68.8491 60.2316 68.6964 58.3873C68.5382 56.4996 67.0494 55.2683 65.4789 53.9611C64.181 52.8816 62.714 52.0354 61.1161 51.4388C60.8162 51.3249 60.4836 51.4767 60.369 51.7751C60.2545 52.0734 60.4072 52.4043 60.7071 52.5182C62.185 53.0715 63.5375 53.8526 64.7372 54.8452C66.2369 56.0928 67.4203 57.0746 67.5402 58.4795C67.6548 59.8573 66.695 61.0127 65.4789 62.4772C64.59 63.5458 63.5374 64.4625 62.3432 65.2165C62.0705 65.3847 61.9941 65.7427 62.1632 66.0139C62.2723 66.1875 62.4631 66.2797 62.654 66.2797L62.6485 66.2851Z" fill="#408F95"/>
<path d="M234.594 78.1535C234.878 78.1535 235.145 77.9799 235.248 77.7033C235.45 77.1826 235.499 76.6673 235.407 76.1736C234.943 73.7598 231.235 72.9191 228.53 72.3007C225.727 71.6606 222.798 71.4111 219.826 71.5467C219.439 71.563 219.139 71.8939 219.155 72.279C219.172 72.6641 219.499 72.9516 219.892 72.9462C222.738 72.8106 225.536 73.0547 228.214 73.6622C230.28 74.1341 233.738 74.9206 234.027 76.434C234.07 76.6673 234.038 76.9276 233.934 77.2043C233.798 77.5623 233.978 77.9691 234.343 78.1047C234.425 78.1373 234.507 78.1481 234.594 78.1481V78.1535Z" fill="#408F95"/>
<path d="M226.883 86.4962C227.003 86.4962 227.129 86.4636 227.238 86.3985C228.41 85.7096 229.55 84.9611 230.63 84.18C231.099 83.8382 231.748 83.3717 232.56 82.6774C233.302 82.0482 234.011 81.3756 234.676 80.6813C234.709 80.6487 234.736 80.6108 234.763 80.5728C234.791 80.5294 234.84 80.4589 234.9 80.3775C235.598 79.3686 236.247 78.3217 235.827 77.5569C235.707 77.3345 235.401 76.9656 234.681 76.9927C234.294 77.0036 233.989 77.3236 234 77.7088C234.011 78.0125 234.212 78.2675 234.491 78.3542C234.398 78.5821 234.185 78.9564 233.749 79.5856C233.7 79.6561 233.656 79.7212 233.623 79.77C233.007 80.4155 232.342 81.0393 231.655 81.6197C230.88 82.276 230.264 82.7262 229.812 83.0517C228.77 83.8057 227.668 84.5271 226.534 85.1943C226.201 85.3896 226.092 85.8181 226.289 86.149C226.42 86.3714 226.654 86.4907 226.894 86.4907L226.883 86.4962Z" fill="#408F95"/>
<path d="M208.031 90.0111C208.391 90.0111 208.745 90.0057 209.1 89.9948C213.866 89.8429 219.172 88.7581 219.396 88.7093C221.812 88.1994 224.227 87.543 226.594 86.7565C226.96 86.6318 227.161 86.2412 227.036 85.8723C226.911 85.5089 226.518 85.3082 226.147 85.433C223.835 86.2032 221.463 86.8433 219.107 87.3423C219.058 87.3532 213.691 88.4489 209.051 88.6008C207.616 88.6496 206.149 88.6008 204.704 88.4489C204.055 88.3838 203.701 88.3296 202.207 88.0963L200.407 87.8197C199.905 87.7437 199.453 87.6678 199.038 87.6027C197.729 87.3912 196.781 87.2338 195.69 87.2176C194.207 87.1905 192.68 87.3857 191.164 87.7871C190.787 87.8848 190.569 88.2699 190.667 88.6442C190.765 89.0185 191.153 89.2354 191.529 89.1378C192.92 88.7689 194.31 88.5899 195.668 88.6116C196.661 88.6279 197.566 88.7744 198.815 88.9805C199.235 89.051 199.693 89.1215 200.2 89.2029L201.994 89.4795C203.477 89.7073 203.881 89.7724 204.563 89.8375C205.713 89.9514 206.875 90.0111 208.025 90.0111H208.031Z" fill="#408F95"/>
<path d="M188.671 84.4403C188.955 84.4403 189.244 84.4295 189.527 84.4132C189.577 84.4132 189.626 84.4024 189.669 84.3861C190.046 84.2776 190.422 84.1474 190.787 84.001C191.654 83.6538 192.271 83.2741 192.538 83.1114L192.609 83.068C195.395 81.4136 198.28 79.8676 201.187 78.4627C203.864 77.1717 205.975 76.152 208.849 75.1756C211.881 74.145 215.044 73.4018 218.256 72.9625C218.638 72.9082 218.91 72.5611 218.856 72.1759C218.801 71.7962 218.452 71.5196 218.065 71.5793C214.76 72.0241 211.51 72.7889 208.391 73.8521C205.44 74.8556 203.292 75.8916 200.576 77.2043C197.631 78.6255 194.708 80.1931 191.889 81.8638L191.796 81.918C191.562 82.0645 191.011 82.4008 190.258 82.7045C189.964 82.8239 189.658 82.9269 189.353 83.0192C188.824 83.0517 188.29 83.0463 187.766 83.0029C187.123 82.9486 186.654 82.8564 186.479 82.8184C184.679 82.455 180.622 81.9777 177.17 81.8258C175.218 81.7444 173.745 81.7716 172 82.1675C171.471 82.2869 170.948 82.4387 170.435 82.6069C170.07 82.7317 169.873 83.1276 169.993 83.4911C170.119 83.8545 170.517 84.0498 170.882 83.9304C171.346 83.7731 171.826 83.6375 172.311 83.529C173.904 83.1656 175.272 83.1385 177.11 83.2199C180.846 83.3826 184.734 83.887 186.185 84.18C186.397 84.2234 186.926 84.3318 187.652 84.3915C187.99 84.4186 188.333 84.4349 188.671 84.4349V84.4403Z" fill="#408F95"/>
<path d="M176.815 100.654C176.963 100.654 177.115 100.605 177.241 100.507L183.954 95.3704C185.165 94.3452 186.326 93.282 187.433 92.1917C188.262 91.3726 189.086 90.521 189.871 89.6585C190.133 89.3711 190.111 88.9317 189.822 88.6713C189.533 88.411 189.091 88.4327 188.829 88.7201C188.06 89.5663 187.259 90.3963 186.446 91.1991C185.366 92.2622 184.227 93.3037 183.07 94.2855L176.385 99.4006C176.079 99.6339 176.019 100.073 176.254 100.382C176.39 100.561 176.603 100.654 176.81 100.654H176.815Z" fill="#408F95"/>
<path d="M176.81 100.654C177.066 100.654 177.317 100.513 177.437 100.269C178.419 98.3103 179.051 96.2599 179.324 94.1716C179.553 92.4195 179.733 91.0363 179.117 89.4253C178.424 87.6082 177.137 86.5992 175.507 85.3245L175.365 85.216C174.029 84.1691 172.535 83.3012 170.926 82.6286C170.566 82.4768 170.157 82.6449 170.01 83.0029C169.863 83.3609 170.026 83.7677 170.386 83.9142C171.875 84.5326 173.26 85.3408 174.498 86.3063L174.64 86.4148C176.156 87.6027 177.252 88.4598 177.808 89.9135C178.299 91.1936 178.152 92.3056 177.934 93.9817C177.683 95.9128 177.094 97.8167 176.183 99.6339C176.008 99.981 176.15 100.399 176.499 100.572C176.597 100.621 176.707 100.648 176.81 100.648V100.654Z" fill="#408F95"/>
<path d="M219.903 84.1528C220.159 84.1528 220.426 84.1365 220.699 84.104C222.651 83.8545 223.955 82.7967 224.56 82.1892C224.833 81.9126 224.833 81.4732 224.554 81.202C224.276 80.9308 223.835 80.9308 223.562 81.2074C223.082 81.6902 222.057 82.5255 220.519 82.7208C218.986 82.9215 217.869 82.3574 217.127 81.9831C217.018 81.9289 216.931 81.88 216.86 81.8421C217.203 81.6685 217.825 81.4678 218.714 81.2291C220.197 80.8331 221.773 80.6324 223.404 80.6324C223.791 80.6324 224.107 80.3178 224.107 79.9327C224.107 79.5476 223.791 79.233 223.404 79.233C221.648 79.233 219.952 79.4499 218.348 79.8785C216.631 80.3395 215.213 80.8006 215.218 81.8638C215.218 82.5038 215.834 82.8998 216.494 83.2307C217.17 83.567 218.343 84.1582 219.903 84.1582V84.1528Z" fill="#408F95"/>
<path d="M227.657 84.1094C227.925 84.1094 228.181 83.9576 228.301 83.6972C228.459 83.3446 228.301 82.9324 227.947 82.7751C226.665 82.2001 225.563 81.3864 224.68 80.3558C224.211 79.808 223.807 79.2004 223.48 78.5549C223.306 78.2078 222.886 78.0722 222.537 78.2458C222.188 78.4193 222.051 78.837 222.226 79.1842C222.602 79.9327 223.071 80.6325 223.611 81.2671C224.631 82.4604 225.896 83.3989 227.374 84.0552C227.467 84.0986 227.565 84.1149 227.663 84.1149L227.657 84.1094Z" fill="#408F95"/>
<path d="M230.133 76.8843C230.248 76.8843 230.362 76.868 230.477 76.8409C231.202 76.6564 231.644 75.9133 231.453 75.1919C231.36 74.8393 231.142 74.5464 230.826 74.3674C230.51 74.183 230.144 74.1341 229.795 74.2209C229.441 74.3131 229.146 74.5301 228.961 74.8447C228.775 75.1539 228.726 75.5228 228.814 75.8699C228.906 76.2171 229.124 76.5154 229.441 76.6944C229.653 76.8192 229.888 76.8843 230.128 76.8843H230.133ZM230.133 75.4902C230.133 75.4902 230.172 75.5065 230.177 75.5228C230.177 75.5444 230.166 75.5716 230.144 75.577C230.117 75.5824 230.095 75.5661 230.09 75.5445C230.084 75.5228 230.095 75.4956 230.122 75.4902C230.122 75.4902 230.122 75.4902 230.128 75.4902H230.133Z" fill="#408F95"/>
<path d="M213.168 92.7016C213.391 92.7016 213.577 92.6853 213.697 92.6744C214.406 92.6039 215.12 92.4846 215.813 92.3164C216.761 92.0886 217.699 91.7632 218.594 91.3618C221.839 89.8918 223.578 88.7147 226.463 86.7674C226.785 86.5504 226.867 86.1164 226.648 85.7964C226.43 85.4764 225.994 85.395 225.672 85.612C222.755 87.581 221.146 88.6659 218.01 90.0925C217.198 90.4613 216.342 90.7542 215.48 90.9604C214.853 91.1122 214.204 91.2207 213.56 91.2858C213.162 91.3238 212.775 91.2912 212.546 91.2424C212.748 90.9332 213.309 90.3311 214.52 89.4253C214.831 89.192 214.891 88.7581 214.662 88.4489C214.427 88.1397 213.991 88.0801 213.68 88.3079C210.948 90.3474 210.872 91.2478 211.155 91.8554C211.488 92.5714 212.491 92.7016 213.173 92.7016H213.168Z" fill="#408F95"/>
<path d="M197.391 94.0088C198.973 94.0088 200.532 93.7864 202.054 93.3471C204.393 92.669 206.602 91.454 208.445 89.8375C208.734 89.5826 208.762 89.1432 208.505 88.8503C208.249 88.5628 207.807 88.5357 207.513 88.7906C205.822 90.2715 203.799 91.3835 201.656 92.0073C200.134 92.4466 198.564 92.6473 196.982 92.6094C197.02 92.0778 197.146 91.3238 197.495 90.7488C197.62 90.5427 197.811 90.2281 198.177 89.9515C198.286 89.8701 198.367 89.8213 198.558 89.7074L198.716 89.6151C199.164 89.3439 199.529 89.1161 199.769 88.9642C200.096 88.7581 200.189 88.3242 199.982 87.9987C199.774 87.6732 199.338 87.581 199.011 87.7871C198.776 87.939 198.427 88.156 197.986 88.4218L197.833 88.514C197.577 88.6713 197.468 88.7364 197.32 88.8449C196.748 89.2788 196.442 89.7833 196.295 90.0274C195.548 91.2533 195.548 92.8426 195.564 93.2983C195.575 93.6563 195.859 93.9437 196.219 93.9709C196.611 93.998 196.999 94.0088 197.391 94.0088Z" fill="#408F95"/>
<path d="M194.053 81.3322C194.053 81.3322 194.097 81.3322 194.119 81.3322C194.735 81.278 195.384 81.1804 196.104 81.0447C196.486 80.9688 196.731 80.6054 196.66 80.2257C196.584 79.846 196.213 79.6019 195.837 79.6724C195.16 79.8026 194.561 79.8894 193.993 79.9436C193.606 79.9762 193.323 80.3179 193.355 80.703C193.388 81.0664 193.694 81.3377 194.053 81.3377V81.3322Z" fill="#408F95"/>
<path d="M192.696 81.4624C193.154 81.4624 193.65 81.419 194.179 81.3268C194.561 81.2617 194.817 80.8983 194.747 80.5186C194.681 80.1389 194.316 79.8839 193.934 79.9544C192.151 80.269 191.136 79.911 190.94 79.4554C190.76 79.0323 191.185 78.1373 192.543 77.1826C192.86 76.9602 192.936 76.5263 192.712 76.2117C192.489 75.8971 192.053 75.8211 191.736 76.0435C189.926 77.3182 189.146 78.7936 189.648 79.9924C190.051 80.9525 191.153 81.4678 192.696 81.4678V81.4624Z" fill="#408F95"/>
<path d="M193.994 76.4123C194.092 76.4123 194.19 76.3907 194.288 76.3473C195.744 75.6801 197.244 75.078 198.755 74.5518C204.121 72.675 209.814 71.6715 215.671 71.5739C216.058 71.5684 216.369 71.2484 216.364 70.8633C216.358 70.4782 216.026 70.169 215.649 70.1744C209.64 70.272 203.799 71.3026 198.291 73.2283C196.742 73.7707 195.199 74.3891 193.705 75.0725C193.35 75.2353 193.198 75.6475 193.361 76.0001C193.481 76.255 193.732 76.4069 193.999 76.4069L193.994 76.4123Z" fill="#408F95"/>
<path d="M224.631 73.071C224.92 73.071 225.193 72.892 225.291 72.6045C225.422 72.2411 225.231 71.8397 224.865 71.7149C223.769 71.3244 222.635 71.0098 221.495 70.7657C220.41 70.5324 219.292 70.3697 218.18 70.2721C217.918 70.2504 217.7 70.2341 217.547 70.2232C217.154 70.1961 216.827 70.489 216.8 70.8742C216.778 71.2593 217.067 71.5902 217.454 71.6173C217.601 71.6281 217.809 71.639 218.054 71.6607C219.107 71.7529 220.165 71.9102 221.195 72.1326C222.275 72.3604 223.349 72.6642 224.391 73.033C224.467 73.0602 224.549 73.071 224.625 73.071H224.631Z" fill="#408F95"/>
<path d="M213.484 72.2736C213.62 72.2736 213.757 72.1977 213.828 72.0675C213.926 71.8776 213.855 71.6498 213.664 71.5468C213.571 71.4979 213.44 71.4329 213.271 71.3569C212.655 71.0803 212.001 70.8796 211.319 70.7711C210.795 70.6843 210.261 70.6572 209.721 70.6789C209.508 70.6897 209.345 70.8687 209.35 71.0803C209.361 71.2918 209.536 71.4545 209.754 71.4491C210.234 71.4274 210.719 71.4545 211.194 71.5305C211.804 71.6281 212.393 71.8071 212.95 72.0566C213.097 72.1217 213.217 72.1814 213.299 72.2248C213.359 72.2573 213.419 72.2682 213.479 72.2682L213.484 72.2736Z" fill="#408F95"/>
<path d="M209.901 73.0167C210.059 73.0167 210.212 72.9191 210.266 72.7564C210.337 72.5557 210.228 72.3387 210.026 72.2682C209.934 72.2356 209.797 72.1922 209.634 72.138C209.018 71.9481 208.374 71.7854 207.714 71.6661C207.207 71.5739 206.689 71.5033 206.182 71.46C205.975 71.4383 205.784 71.601 205.762 71.8125C205.746 72.0241 205.904 72.2085 206.116 72.2302C206.596 72.2736 207.087 72.3387 207.572 72.4255C208.2 72.5394 208.816 72.6913 209.399 72.8703C209.557 72.9191 209.683 72.9625 209.77 72.9896C209.814 73.0059 209.852 73.0113 209.896 73.0113L209.901 73.0167Z" fill="#408F95"/>
<path d="M205.419 74.1124C205.571 74.1124 205.713 74.0256 205.773 73.8792C205.855 73.6839 205.762 73.4561 205.566 73.3747C205.473 73.3367 205.337 73.2825 205.173 73.2228C204.557 72.995 203.908 72.8214 203.243 72.7021C202.725 72.6153 202.201 72.5611 201.683 72.5448C201.47 72.5448 201.29 72.7075 201.285 72.9191C201.279 73.1306 201.448 73.3096 201.661 73.3151C202.141 73.3313 202.632 73.3801 203.112 73.4615C203.733 73.57 204.333 73.7327 204.906 73.9443C205.059 73.9985 205.184 74.0528 205.266 74.0853C205.315 74.107 205.364 74.1178 205.413 74.1178L205.419 74.1124Z" fill="#408F95"/>
<path d="M200.271 90.6404C200.32 90.6404 200.369 90.6295 200.413 90.6132L203.336 89.4633C203.532 89.3873 203.63 89.1595 203.554 88.9642C203.477 88.769 203.248 88.6713 203.052 88.7473L200.129 89.8972C199.933 89.9732 199.834 90.201 199.911 90.3963C199.971 90.5481 200.118 90.6404 200.271 90.6404Z" fill="#408F95"/>
<path d="M180.616 94.7356C180.769 94.7356 180.922 94.676 181.036 94.5567C181.811 93.7593 182.443 92.8588 182.923 91.877C183.567 90.5698 184.172 89.333 183.725 88.0095C183.272 86.6588 182.002 86.0405 180.655 85.3841C179.553 84.8471 178.375 84.5 177.143 84.3481C176.821 84.3101 176.537 84.5325 176.499 84.8525C176.461 85.1672 176.684 85.4547 177.006 85.4926C178.102 85.6228 179.16 85.9374 180.142 86.4148C181.358 87.0114 182.323 87.4779 182.623 88.3729C182.918 89.2462 182.46 90.1847 181.876 91.3672C181.451 92.2405 180.884 93.0433 180.196 93.7538C179.973 93.9817 179.984 94.3505 180.213 94.5675C180.327 94.676 180.469 94.7302 180.616 94.7302V94.7356Z" fill="#408F95"/>
<path d="M283.751 12.7743C283.86 12.7743 283.969 12.7472 284.072 12.6983C286.603 11.3965 289.253 10.4581 291.942 9.90483C294.019 9.47631 297.488 8.7603 298.388 10.0187C298.524 10.214 298.606 10.4635 298.627 10.7564C298.655 11.1416 298.993 11.4291 299.375 11.4074C299.762 11.3802 300.056 11.0494 300.029 10.6642C299.991 10.1055 299.822 9.61734 299.533 9.21052C298.104 7.20894 294.379 7.9792 291.658 8.5379C288.844 9.1183 286.079 10.1001 283.429 11.4616C283.085 11.6406 282.949 12.0583 283.129 12.4C283.254 12.6387 283.5 12.7797 283.751 12.7797V12.7743Z" fill="#408F95"/>
<path d="M295.808 22.1855C296.032 22.1855 296.25 22.0824 296.386 21.8871C297.166 20.7751 297.886 19.6252 298.54 18.4644C298.824 17.9599 299.217 17.2656 299.664 16.3001C300.073 15.4213 300.438 14.5155 300.754 13.6042C300.771 13.5608 300.782 13.5174 300.787 13.4686C300.793 13.4143 300.809 13.333 300.825 13.2299C301.038 12.0257 301.191 10.8052 300.487 10.2791C300.285 10.1272 299.849 9.92109 299.206 10.2411C298.857 10.4093 298.715 10.8324 298.884 11.1741C299.02 11.4453 299.315 11.5972 299.598 11.5592C299.604 11.8033 299.571 12.2373 299.44 12.9858C299.424 13.0726 299.413 13.1486 299.402 13.2082C299.107 14.0544 298.769 14.8952 298.388 15.7088C297.962 16.6255 297.586 17.2873 297.313 17.7755C296.681 18.8929 295.983 20.0049 295.23 21.0843C295.007 21.3989 295.088 21.8383 295.405 22.0553C295.525 22.1421 295.666 22.18 295.803 22.18L295.808 22.1855Z" fill="#408F95"/>
<path d="M264.62 39.3263C264.778 39.3263 264.937 39.2721 265.067 39.1636C266.175 38.2523 267.369 37.5146 268.607 36.9722C269.512 36.5762 270.395 36.3375 271.622 36.0066C272.031 35.8927 272.479 35.7734 272.975 35.6324L274.731 35.1387C276.171 34.7319 276.558 34.6234 277.212 34.401C278.652 33.9128 280.059 33.327 281.4 32.6653C285.67 30.5552 290.039 27.3657 290.224 27.2301C292.204 25.7655 294.129 24.1653 295.95 22.473C296.234 22.2072 296.25 21.7678 295.983 21.4857C295.716 21.2037 295.274 21.1874 294.99 21.4532C293.207 23.1076 291.326 24.6752 289.39 26.1073C289.346 26.1398 284.929 29.3564 280.773 31.4122C279.486 32.0469 278.139 32.6056 276.76 33.0775C276.143 33.2836 275.8 33.3813 274.355 33.7881L272.599 34.2817C272.108 34.4227 271.666 34.5421 271.257 34.6505C269.976 34.9977 269.054 35.2526 268.05 35.6866C266.687 36.2778 265.384 37.0861 264.179 38.0787C263.879 38.3228 263.84 38.7622 264.086 39.0605C264.222 39.2287 264.424 39.3155 264.626 39.3155L264.62 39.3263Z" fill="#408F95"/>
<path d="M243.636 43.183C243.81 43.183 243.979 43.1179 244.116 42.9932C244.476 42.6569 244.852 42.3368 245.244 42.0385C246.537 41.0513 247.775 40.46 249.476 39.7711C252.945 38.3717 256.686 37.2217 258.125 36.8854C258.338 36.8366 258.867 36.7118 259.549 36.4677C260.138 36.2562 260.71 36.0012 261.261 35.7029C261.305 35.6812 261.343 35.6541 261.381 35.6215C261.676 35.3666 261.965 35.0954 262.237 34.8079C262.875 34.1353 263.284 33.5332 263.453 33.2728L263.502 33.2023C265.34 30.5498 267.32 27.9407 269.376 25.4618C271.274 23.1782 272.762 21.3773 274.96 19.2998C277.283 17.1083 279.846 15.1176 282.584 13.3927C282.911 13.1866 283.009 12.7526 282.802 12.4272C282.595 12.1017 282.158 12.0041 281.831 12.2102C279.017 13.9839 276.378 16.0289 273.989 18.2854C271.732 20.4226 270.21 22.2506 268.291 24.5668C266.202 27.0837 264.2 29.7199 262.341 32.4103L262.281 32.4971C262.128 32.7249 261.768 33.2565 261.212 33.8478C260.994 34.081 260.759 34.3034 260.519 34.5095C260.056 34.7591 259.565 34.976 259.069 35.155C258.463 35.372 258 35.4805 257.82 35.5239C256.031 35.9416 252.143 37.1837 248.942 38.4801C247.131 39.2124 245.806 39.8471 244.383 40.9319C243.952 41.2628 243.538 41.6154 243.145 41.9788C242.861 42.2446 242.85 42.684 243.118 42.966C243.254 43.1125 243.439 43.183 243.63 43.183H243.636Z" fill="#408F95"/>
<path d="M256.211 55.8C256.462 55.8 256.707 55.6643 256.833 55.4257L260.786 47.9781C261.457 46.5406 262.068 45.0978 262.619 43.6495C263.033 42.5646 263.42 41.4526 263.769 40.3352C263.884 39.9664 263.682 39.5758 263.311 39.4619C262.94 39.348 262.548 39.5487 262.433 39.9176C262.09 41.0078 261.708 42.0981 261.304 43.1559C260.764 44.5716 260.17 45.9874 259.526 47.3597L255.589 54.7748C255.409 55.1165 255.54 55.5396 255.884 55.7186C255.987 55.7728 256.102 55.8 256.211 55.8Z" fill="#408F95"/>
<path d="M256.217 55.7999C256.593 55.7999 256.904 55.5016 256.92 55.1219C256.991 52.9359 256.707 50.8096 256.08 48.7972C255.551 47.1102 255.137 45.7758 253.904 44.5716C252.514 43.2047 250.921 42.825 248.904 42.3422L248.729 42.2988C247.077 41.9028 245.353 41.7293 243.614 41.7889C243.227 41.7998 242.921 42.1252 242.938 42.5104C242.948 42.8955 243.265 43.2047 243.663 43.183C245.277 43.1287 246.869 43.286 248.402 43.6549L248.576 43.6983C250.452 44.1485 251.805 44.474 252.923 45.5697C253.904 46.5298 254.237 47.5984 254.739 49.2148C255.322 51.0754 255.584 53.0498 255.513 55.0785C255.502 55.4636 255.802 55.7891 256.195 55.7999C256.2 55.7999 256.211 55.7999 256.217 55.7999Z" fill="#408F95"/>
<path d="M285.899 23.4602C286.821 23.4602 288.135 23.3354 289.477 22.5001C291.146 21.464 291.887 19.9615 292.182 19.1587C292.313 18.7953 292.127 18.3939 291.762 18.2637C291.396 18.1335 290.993 18.3179 290.862 18.6813C290.628 19.316 290.044 20.5039 288.73 21.3176C287.421 22.1312 286.167 22.0824 285.338 22.0498C285.218 22.0498 285.12 22.039 285.038 22.0281C285.283 21.7298 285.758 21.285 286.467 20.6992C287.65 19.7228 288.997 18.8875 290.48 18.2149C290.835 18.0521 290.987 17.6399 290.824 17.2873C290.666 16.9347 290.246 16.7828 289.891 16.9456C288.299 17.6724 286.843 18.5729 285.567 19.6252C284.198 20.7534 283.102 21.7678 283.549 22.7279C283.822 23.3137 284.574 23.4168 285.283 23.4439C285.458 23.4493 285.665 23.4602 285.894 23.4602H285.899Z" fill="#408F95"/>
<path d="M295.421 19.6903C295.454 19.6903 295.481 19.6903 295.514 19.6903C295.901 19.6903 296.212 19.3702 296.212 18.9851C296.212 18.6 295.896 18.2908 295.508 18.2908C295.481 18.2908 295.448 18.2908 295.421 18.2908C294.047 18.2908 292.733 18.0087 291.517 17.4446C290.862 17.1409 290.24 16.7557 289.668 16.3055C289.362 16.0614 288.921 16.1102 288.681 16.414C288.441 16.7178 288.484 17.1571 288.79 17.3958C289.45 17.922 290.164 18.3613 290.922 18.7139C292.324 19.3594 293.834 19.6903 295.416 19.6903H295.421Z" fill="#408F95"/>
<path d="M294.467 12.1559C294.767 12.1559 295.072 12.0583 295.323 11.8521C295.606 11.6243 295.781 11.2989 295.819 10.9409C295.857 10.5829 295.748 10.2303 295.519 9.94821C295.29 9.66614 294.963 9.49256 294.603 9.45459C294.243 9.41662 293.889 9.51968 293.605 9.75293C293.322 9.98075 293.147 10.3062 293.109 10.6642C293.071 11.0222 293.18 11.3748 293.409 11.6569C293.676 11.9877 294.069 12.1559 294.467 12.1559ZM294.467 10.7619C294.467 10.7619 294.494 10.7619 294.499 10.7781C294.51 10.7944 294.51 10.8269 294.494 10.8378C294.478 10.8541 294.445 10.8486 294.434 10.8324C294.423 10.8161 294.423 10.7836 294.439 10.7727C294.445 10.7673 294.456 10.7619 294.467 10.7619Z" fill="#408F95"/>
<path d="M284.885 33.7935C285.61 33.7935 286.406 33.3758 286.701 33.2022C287.317 32.8442 287.912 32.4428 288.473 32.0035C289.242 31.4014 289.962 30.7179 290.606 29.9802C292.94 27.2952 294.03 25.5106 295.835 22.5435C296.037 22.2126 295.928 21.7841 295.601 21.5834C295.268 21.3827 294.837 21.4911 294.636 21.8166C292.809 24.8162 291.8 26.4707 289.542 29.0635C288.959 29.7361 288.304 30.3545 287.606 30.9023C287.099 31.3037 286.554 31.6672 285.992 31.9926C285.643 32.1933 285.283 32.3235 285.049 32.3723C285.103 32.0089 285.359 31.2278 286.085 29.9043C286.27 29.5679 286.145 29.1394 285.801 28.955C285.463 28.7706 285.032 28.8953 284.847 29.2371C283.216 32.2259 283.522 33.0721 284.034 33.5114C284.274 33.7121 284.569 33.7881 284.879 33.7881L284.885 33.7935Z" fill="#408F95"/>
<path d="M271.104 41.6588C271.186 41.6588 271.268 41.6425 271.35 41.6154C273.204 40.9211 274.9 39.9176 276.389 38.632C278.232 37.0481 279.732 35.0248 280.73 32.7955C280.888 32.4429 280.73 32.0306 280.375 31.8733C280.021 31.716 279.606 31.8733 279.448 32.2259C278.532 34.2763 277.158 36.126 275.473 37.5743C274.278 38.6049 272.937 39.4348 271.475 40.0586C271.29 39.5541 271.088 38.8273 271.164 38.1547C271.192 37.916 271.235 37.5526 271.448 37.1458C271.513 37.0264 271.568 36.9505 271.693 36.766L271.797 36.6142C272.092 36.1802 272.326 35.8222 272.479 35.5835C272.686 35.2581 272.593 34.8241 272.266 34.618C271.939 34.4119 271.508 34.5041 271.295 34.8296C271.148 35.0628 270.919 35.41 270.63 35.8331L270.526 35.9849C270.357 36.2345 270.286 36.3375 270.205 36.5003C269.867 37.1349 269.801 37.7153 269.768 37.9974C269.605 39.4131 270.265 40.8614 270.472 41.2737C270.592 41.5177 270.843 41.6588 271.099 41.6588H271.104Z" fill="#408F95"/>
<path d="M263.802 31.0922C263.922 31.0922 264.042 31.0651 264.151 31C264.685 30.6962 265.236 30.3382 265.836 29.9151C266.152 29.6927 266.223 29.2533 266 28.9387C265.776 28.6241 265.334 28.5536 265.018 28.776C264.462 29.172 263.949 29.5029 263.453 29.7849C263.115 29.9748 263 30.4033 263.191 30.7396C263.322 30.962 263.557 31.0922 263.802 31.0922Z" fill="#408F95"/>
<path d="M261.037 32.1717C261.942 32.1717 263.039 31.7648 264.2 30.9675C264.522 30.7505 264.598 30.3111 264.38 29.9965C264.162 29.6765 263.72 29.6005 263.404 29.8175C261.915 30.8373 260.841 30.9403 260.475 30.5986C260.137 30.284 260.148 29.2968 260.983 27.8702C261.179 27.5393 261.064 27.1108 260.726 26.9155C260.394 26.7202 259.963 26.8341 259.767 27.1704C258.654 29.0798 258.561 30.7451 259.521 31.6238C259.919 31.9872 260.437 32.1717 261.037 32.1717Z" fill="#408F95"/>
<path d="M261.681 26.6442C261.877 26.6442 262.074 26.5629 262.215 26.4001C263.262 25.1905 264.37 24.0189 265.52 22.9177C269.61 18.9851 274.366 15.7197 279.65 13.2028C279.999 13.0346 280.146 12.617 279.983 12.2698C279.814 11.9226 279.399 11.7762 279.045 11.9389C273.624 14.5155 268.743 17.8731 264.544 21.9088C263.366 23.0425 262.221 24.2467 261.152 25.4889C260.901 25.7818 260.934 26.2211 261.228 26.4761C261.359 26.59 261.523 26.6442 261.686 26.6442H261.681Z" fill="#408F95"/>
<path d="M281.046 12.541C281.128 12.541 281.215 12.5248 281.297 12.4922C281.433 12.438 281.629 12.3675 281.864 12.2861C282.862 11.9335 283.887 11.6406 284.918 11.4128C285.998 11.1741 287.099 11.006 288.201 10.9083C288.588 10.8758 288.871 10.534 288.839 10.1489C288.806 9.76379 288.468 9.48173 288.075 9.51427C286.914 9.61734 285.752 9.79634 284.612 10.0459C283.527 10.2845 282.447 10.5937 281.395 10.968C281.149 11.0548 280.942 11.1307 280.795 11.1904C280.435 11.326 280.25 11.7328 280.391 12.0908C280.501 12.3675 280.762 12.541 281.046 12.541Z" fill="#408F95"/>
<path d="M274.054 15.5732C274.114 15.5732 274.174 15.5569 274.229 15.5298C274.66 15.3129 275.107 15.1393 275.57 15.0091C276.165 14.8464 276.781 14.765 277.386 14.7596C277.55 14.7596 277.686 14.7596 277.774 14.7704C277.997 14.7813 278.172 14.6185 278.183 14.407C278.193 14.1954 278.03 14.011 277.817 14.0002C277.714 13.9947 277.561 13.9893 277.381 13.9893C276.705 13.9893 276.023 14.0815 275.363 14.266C274.851 14.407 274.349 14.6023 273.874 14.8409C273.684 14.9386 273.607 15.1718 273.705 15.3562C273.776 15.4919 273.907 15.5678 274.049 15.5678L274.054 15.5732Z" fill="#408F95"/>
<path d="M271.121 17.7809C271.164 17.7809 271.208 17.7755 271.252 17.7592C271.71 17.5965 272.179 17.4555 272.659 17.3307C273.275 17.1734 273.897 17.0595 274.507 16.9781C274.671 16.9564 274.802 16.9456 274.895 16.9347C275.107 16.913 275.265 16.7286 275.244 16.5171C275.222 16.3055 275.031 16.1536 274.824 16.1699C274.726 16.1807 274.584 16.1916 274.415 16.2133C273.777 16.2947 273.122 16.4194 272.473 16.5821C271.972 16.7069 271.475 16.8588 270.995 17.0324C270.794 17.1029 270.69 17.3253 270.761 17.526C270.815 17.6833 270.968 17.7809 271.126 17.7809H271.121Z" fill="#408F95"/>
<path d="M267.494 20.6124C267.543 20.6124 267.592 20.6016 267.647 20.5799C268.094 20.3901 268.558 20.2382 269.027 20.1134C269.637 19.9561 270.254 19.853 270.859 19.8096C271.023 19.7988 271.153 19.7934 271.246 19.788C271.459 19.7825 271.628 19.6035 271.622 19.392C271.617 19.1804 271.442 19.0177 271.224 19.0177C271.126 19.0177 270.979 19.0285 270.804 19.0394C270.15 19.0882 269.485 19.1967 268.83 19.3703C268.329 19.5005 267.827 19.6686 267.347 19.8747C267.151 19.9561 267.058 20.1839 267.14 20.3792C267.2 20.5257 267.347 20.6124 267.494 20.6124Z" fill="#408F95"/>
<path d="M273.482 36.945C273.585 36.945 273.684 36.9071 273.76 36.8257L275.936 34.5692C276.083 34.4173 276.078 34.1732 275.925 34.0268C275.772 33.8803 275.527 33.8857 275.38 34.0376L273.204 36.2941C273.056 36.446 273.062 36.6901 273.215 36.8366C273.291 36.9071 273.384 36.945 273.482 36.945Z" fill="#408F95"/>
<path d="M257.242 48.8351C257.482 48.8351 257.705 48.6887 257.787 48.45C258.158 47.4031 258.354 46.3237 258.382 45.2334C258.414 43.7743 258.453 42.4019 257.493 41.3821C256.517 40.3461 255.104 40.3081 253.605 40.2647C252.377 40.2322 251.161 40.4058 249.978 40.78C249.673 40.8777 249.504 41.2031 249.602 41.5069C249.7 41.8106 250.027 41.9788 250.332 41.8812C251.385 41.5449 252.481 41.393 253.572 41.4201C254.93 41.4581 255.999 41.4852 256.647 42.1741C257.28 42.8467 257.253 43.8882 257.226 45.2063C257.204 46.1772 257.024 47.1428 256.697 48.0703C256.593 48.3686 256.751 48.6995 257.051 48.8026C257.116 48.8243 257.182 48.8351 257.242 48.8351Z" fill="#408F95"/>
</g>
<defs>
<clipPath id="clip0_2638_33911">
<rect width="301" height="138" fill="white" transform="matrix(-1 0 0 1 301 0)"/>
</clipPath>
</defs>
</svg>
